<svg width="250" height="201" viewBox="0 0 250 201" fill="none" xmlns="http://www.w3.org/2000/svg">
<path opacity="0.2" d="M156.714 1H159.337" stroke="#141F1F" stroke-linecap="round" stroke-linejoin="round"/>
<path opacity="0.2" d="M161.271 1H166.227V38.9331H143.154V1H154.225" stroke="#141F1F" stroke-linecap="round" stroke-linejoin="round"/>
<path opacity="0.2" d="M190.72 1H167.647V38.9331H190.72V1Z" stroke="#141F1F" stroke-linecap="round" stroke-linejoin="round"/>
<path opacity="0.2" d="M209.498 1H215.213V38.9331H192.14V1H206.871" stroke="#141F1F" stroke-linecap="round" stroke-linejoin="round"/>
<path opacity="0.2" d="M239.706 29.5826V38.9331H216.633V1H239.706V27.5674" stroke="#141F1F" stroke-linecap="round" stroke-linejoin="round"/>
<path opacity="0.2" d="M166.227 41.304H143.154V79.237H166.227V41.304Z" stroke="#141F1F" stroke-linecap="round" stroke-linejoin="round"/>
<path opacity="0.2" d="M167.647 53.196V41.304H190.72V79.237H167.647V56.6242" stroke="#141F1F" stroke-linecap="round" stroke-linejoin="round"/>
<path opacity="0.2" d="M215.213 41.304H192.14V79.237H215.213V41.304Z" stroke="#141F1F" stroke-linecap="round" stroke-linejoin="round"/>
<path opacity="0.2" d="M222.408 41.304H239.706V79.237H216.633V41.304H220.594" stroke="#141F1F" stroke-linecap="round" stroke-linejoin="round"/>
<path opacity="0.2" d="M166.227 81.6077H143.154V119.541H166.227V81.6077Z" stroke="#141F1F" stroke-linecap="round" stroke-linejoin="round"/>
<path opacity="0.2" d="M190.72 81.6077H167.647V119.541H190.72V81.6077Z" stroke="#141F1F" stroke-linecap="round" stroke-linejoin="round"/>
<path opacity="0.2" d="M215.213 81.6077H192.14V119.541H215.213V81.6077Z" stroke="#141F1F" stroke-linecap="round" stroke-linejoin="round"/>
<path opacity="0.2" d="M239.706 113.533V119.541H216.633V94.9696" stroke="#141F1F" stroke-linecap="round" stroke-linejoin="round"/>
<path opacity="0.2" d="M239.706 107.886V111.314" stroke="#141F1F" stroke-linecap="round" stroke-linejoin="round"/>
<path opacity="0.2" d="M216.633 91.7405V81.6077H239.706V105.667" stroke="#141F1F" stroke-linecap="round" stroke-linejoin="round"/>
<path opacity="0.2" d="M166.227 121.912H143.154V159.845H166.227V121.912Z" stroke="#141F1F" stroke-linecap="round" stroke-linejoin="round"/>
<path opacity="0.2" d="M190.72 121.912H167.647V159.845H190.72V121.912Z" stroke="#141F1F" stroke-linecap="round" stroke-linejoin="round"/>
<path opacity="0.2" d="M215.213 121.912H192.14V159.845H215.213V121.912Z" stroke="#141F1F" stroke-linecap="round" stroke-linejoin="round"/>
<path opacity="0.2" d="M222.106 159.845H216.633V121.912H239.706V159.845H224.371" stroke="#141F1F" stroke-linecap="round" stroke-linejoin="round"/>
<g opacity="0.2">
<path opacity="0.2" d="M23.0314 66.4346H50.1512V1.94836H12.1693V66.4346H20.465" stroke="#141F1F" stroke-linecap="round" stroke-linejoin="round"/>
<path opacity="0.2" d="M42.0686 4.79333H26.8083" stroke="#141F1F" stroke-linecap="round" stroke-linejoin="round"/>
<path opacity="0.2" d="M13.8448 30.9956V63.5896H48.4758V4.79333H44.0316" stroke="#141F1F" stroke-linecap="round" stroke-linejoin="round"/>
<path opacity="0.2" d="M24.3946 4.79333H13.8448V27.7665" stroke="#141F1F" stroke-linecap="round" stroke-linejoin="round"/>
<path opacity="0.2" d="M36.4777 20.6304H23.1733V47.7525H33.3078" stroke="#141F1F" stroke-linecap="round" stroke-linejoin="round"/>
<path opacity="0.2" d="M34.9691 47.7525H39.1471V20.6304H38.139" stroke="#141F1F" stroke-linecap="round" stroke-linejoin="round"/>
</g>
<g opacity="0.2">
<path opacity="0.2" d="M68.9647 41.2233C76.7732 41.2233 83.1032 32.7677 83.1032 22.3373C83.1032 11.9069 76.7732 3.45142 68.9647 3.45142C61.1562 3.45142 54.8262 11.9069 54.8262 22.3373C54.8262 32.7677 61.1562 41.2233 68.9647 41.2233Z" stroke="#141F1F" stroke-linecap="round" stroke-linejoin="round"/>
<path opacity="0.2" d="M68.9646 38.5725C75.6772 38.5725 81.1189 31.3037 81.1189 22.3372C81.1189 13.3706 75.6772 6.10181 68.9646 6.10181C62.2521 6.10181 56.8104 13.3706 56.8104 22.3372C56.8104 31.3037 62.2521 38.5725 68.9646 38.5725Z" stroke="#141F1F" stroke-linecap="round" stroke-linejoin="round"/>
<path opacity="0.2" d="M65.603 27.259L68.9646 22.3372H78.8435" stroke="#141F1F" stroke-linecap="round" stroke-linejoin="round"/>
</g>
<path d="M31.4905 98.3931C31.4905 98.3931 26.7906 94.8843 26.4428 102.808C26.0949 110.731 25.2252 176.27 25.2252 176.27" stroke="#141F1F" stroke-width="2" stroke-linecap="round" stroke-linejoin="round"/>
<path d="M24.0042 103.505C24.0042 103.505 27.8343 129.086 26.0949 175.578" stroke="#141F1F" stroke-width="2" stroke-linecap="round" stroke-linejoin="round"/>
<path d="M27.788 99.9816C27.788 99.9816 25.9883 101.523 24.9483 99.7587C23.9082 97.9948 25.6582 94.7753 24.1283 93.3955C22.5984 92.0156 20.0106 94.1209 20.0106 94.1209C20.0106 94.1209 22.0198 94.908 21.9559 96.3732C21.892 97.8384 20.9229 98.3931 20.7916 97.753C20.6602 97.1129 19.7053 93.8886 18.076 95.2305C17.6056 95.6007 17.1964 96.0946 16.873 96.6822C16.5496 97.2698 16.3188 97.939 16.1947 98.6492C16.1947 98.6492 19.9787 98.1086 20.22 100.02C20.4614 101.93 18.6653 99.6876 17.0963 99.5454C15.5273 99.4031 14.1039 99.7255 14.2033 100.996C14.2399 102.116 14.1899 103.238 14.0542 104.344C14.9129 103.4 15.9952 102.896 17.107 102.921C18.8286 103.059 18.7647 104.524 17.1992 104.401C15.6338 104.278 14.2991 106.264 14.2991 106.264C14.2991 106.264 15.719 109.526 17.5436 111.139C19.3681 112.751 20.0284 112.177 20.2236 110.93C20.4188 109.683 19.9503 106.501 21.0471 106.587C22.144 106.672 19.2155 112.12 20.6176 112.428C22.0198 112.737 23.1415 112.21 23.5106 110.977L23.8656 109.745C23.8656 109.745 23.3757 106.558 23.5887 105.316C23.8017 104.074 24.0573 105.354 24.2987 106.843C24.54 108.332 24.7033 111.912 25.1825 111.741C25.6618 111.57 27.1917 108.957 27.5538 107.948C27.9158 106.938 25.534 103.799 25.5624 103.173C25.5908 102.547 27.426 103.737 27.6922 104.391C27.8985 104.882 28.0857 105.387 28.253 105.904C28.253 105.904 29.3961 104.956 29.3712 102.002C29.3464 99.0475 27.788 99.9816 27.788 99.9816Z" fill="#426868"/>
<path opacity="0.3" d="M27.788 99.9816C27.788 99.9816 25.9883 101.523 24.9483 99.7587C23.9082 97.9948 25.6582 94.7753 24.1283 93.3955C22.5984 92.0156 20.0106 94.1209 20.0106 94.1209C20.0106 94.1209 22.0198 94.908 21.9559 96.3732C21.892 97.8384 20.9229 98.3931 20.7916 97.753C20.6602 97.1129 19.7053 93.8886 18.076 95.2305C17.6056 95.6007 17.1964 96.0946 16.873 96.6822C16.5496 97.2698 16.3188 97.939 16.1947 98.6492C16.1947 98.6492 19.9787 98.1086 20.22 100.02C20.4614 101.93 18.6653 99.6876 17.0963 99.5454C15.5273 99.4031 14.1039 99.7255 14.2033 100.996C14.2399 102.116 14.1899 103.238 14.0542 104.344C14.9129 103.4 15.9952 102.896 17.107 102.921C18.8286 103.059 18.7647 104.524 17.1992 104.401C15.6338 104.278 14.2991 106.264 14.2991 106.264C14.2991 106.264 15.719 109.526 17.5436 111.139C19.3681 112.751 20.0284 112.177 20.2236 110.93C20.4188 109.683 19.9503 106.501 21.0471 106.587C22.144 106.672 19.2155 112.12 20.6176 112.428C22.0198 112.737 23.1415 112.21 23.5106 110.977L23.8656 109.745C23.8656 109.745 23.3757 106.558 23.5887 105.316C23.8017 104.074 24.0573 105.354 24.2987 106.843C24.54 108.332 24.7033 111.912 25.1825 111.741C25.6618 111.57 27.1917 108.957 27.5538 107.948C27.9158 106.938 25.534 103.799 25.5624 103.173C25.5908 102.547 27.426 103.737 27.6922 104.391C27.8985 104.882 28.0857 105.387 28.253 105.904C28.253 105.904 29.3961 104.956 29.3712 102.002C29.3464 99.0475 27.788 99.9816 27.788 99.9816Z" fill="#141F1F"/>
<path d="M18.6582 106.881C19.8296 104.946 21.5583 102.329 23.003 101.077" stroke="#141F1F" stroke-linecap="round" stroke-linejoin="round"/>
<path d="M17.2987 109.237C17.2987 109.237 17.6004 108.678 18.0867 107.843" stroke="#141F1F" stroke-linecap="round" stroke-linejoin="round"/>
<path d="M23.7698 101.556C23.7698 101.556 25.5091 104.847 25.8322 108.232" stroke="#141F1F" stroke-linecap="round" stroke-linejoin="round"/>
<path d="M21.7963 103.5C21.7963 103.5 22.2861 103.121 22.1015 107.293" stroke="#141F1F" stroke-linecap="round" stroke-linejoin="round"/>
<path d="M23.0706 99.626C23.0706 99.626 24.0645 98.4454 23.5391 96.0935" stroke="#141F1F" stroke-linecap="round" stroke-linejoin="round"/>
<path d="M21.7215 101.608L21.0151 99.8726" stroke="#141F1F" stroke-linecap="round" stroke-linejoin="round"/>
<path d="M20.2307 103.377C20.2307 103.377 17.9731 101.101 16.5638 101.006" stroke="#141F1F" stroke-linecap="round" stroke-linejoin="round"/>
<path d="M34.1775 93.7796C34.1775 93.7796 34.1065 97.2315 32.0903 97.4022C30.074 97.5729 28.8245 93.0778 26.7657 94.1589C24.7069 95.24 24.501 100.162 24.501 100.162C24.501 100.162 26.4604 98.0139 27.5147 99.0997C28.5689 100.186 28.324 101.855 27.7561 101.589C27.1881 101.324 24.1176 100.408 24.0111 103.486C23.9679 104.371 24.0601 105.259 24.2823 106.096C24.5044 106.932 24.8518 107.699 25.3032 108.351C25.3032 108.351 27.4863 102.907 29.073 103.898C30.6597 104.889 27.7632 105.757 26.5882 107.767C25.4132 109.778 24.6856 111.897 25.7043 112.628C26.5689 113.342 27.3766 114.173 28.1146 115.107C28.1146 115.107 27.8377 112.262 29.112 110.043C30.3864 107.824 31.4442 108.92 30.2835 110.93C29.1227 112.941 29.7013 116.098 29.7013 116.098C29.7013 116.098 33.1197 116.411 35.5654 115.084C38.0112 113.756 38.0218 112.485 37.2373 111.357C36.4529 110.228 33.7267 108.702 34.5396 107.298C35.3524 105.894 37.4432 113.491 38.6395 111.836C39.8357 110.181 40.1942 108.308 39.5234 106.976L38.8525 105.643C38.8525 105.643 36.1298 104.126 35.3418 102.993C34.5538 101.859 35.6968 102.39 36.9747 103.073C38.2526 103.756 41.0533 105.989 41.2343 105.231C41.4154 104.472 40.5244 100.645 39.9955 99.4696C39.4666 98.2936 35.5122 99.3415 35.0614 98.8768C34.6106 98.4122 36.7546 96.7716 37.4361 96.8332C38.1177 96.8948 38.9554 97.113 38.9554 97.113C38.9554 97.113 39.0157 94.9318 36.7901 92.964C34.5644 90.9963 34.1775 93.7796 34.1775 93.7796Z" fill="#426868"/>
<path opacity="0.2" d="M34.1775 93.7796C34.1775 93.7796 34.1065 97.2315 32.0903 97.4022C30.074 97.5729 28.8245 93.0778 26.7657 94.1589C24.7069 95.24 24.501 100.162 24.501 100.162C24.501 100.162 26.4604 98.0139 27.5147 99.0997C28.5689 100.186 28.324 101.855 27.7561 101.589C27.1881 101.324 24.1176 100.408 24.0111 103.486C23.9679 104.371 24.0601 105.259 24.2823 106.096C24.5044 106.932 24.8518 107.699 25.3032 108.351C25.3032 108.351 27.4863 102.907 29.073 103.898C30.6597 104.889 27.7632 105.757 26.5882 107.767C25.4132 109.778 24.6856 111.897 25.7043 112.628C26.5689 113.342 27.3766 114.173 28.1146 115.107C28.1146 115.107 27.8377 112.262 29.112 110.043C30.3864 107.824 31.4442 108.92 30.2835 110.93C29.1227 112.941 29.7013 116.098 29.7013 116.098C29.7013 116.098 33.1197 116.411 35.5654 115.084C38.0112 113.756 38.0218 112.485 37.2373 111.357C36.4529 110.228 33.7267 108.702 34.5396 107.298C35.3524 105.894 37.4432 113.491 38.6395 111.836C39.8357 110.181 40.1942 108.308 39.5234 106.976L38.8525 105.643C38.8525 105.643 36.1298 104.126 35.3418 102.993C34.5538 101.859 35.6968 102.39 36.9747 103.073C38.2526 103.756 41.0533 105.989 41.2343 105.231C41.4154 104.472 40.5244 100.645 39.9955 99.4696C39.4666 98.2936 35.5122 99.3415 35.0614 98.8768C34.6106 98.4122 36.7546 96.7716 37.4361 96.8332C38.1177 96.8948 38.9554 97.113 38.9554 97.113C38.9554 97.113 39.0157 94.9318 36.7901 92.964C34.5644 90.9963 34.1775 93.7796 34.1775 93.7796Z" fill="#141F1F"/>
<path d="M33.134 110.669C32.4844 107.782 31.7141 103.685 31.7461 100.897" stroke="#141F1F" stroke-linecap="round" stroke-linejoin="round"/>
<path d="M33.9751 114.093C33.9751 114.093 33.7622 113.306 33.464 112.082" stroke="#141F1F" stroke-linecap="round" stroke-linejoin="round"/>
<path d="M32.6299 100.204C32.6299 100.204 36.279 100.114 39.0194 101.992" stroke="#141F1F" stroke-linecap="round" stroke-linejoin="round"/>
<path d="M32.7577 104.169C32.7577 104.169 32.8074 103.253 35.8175 106.354" stroke="#141F1F" stroke-linecap="round" stroke-linejoin="round"/>
<path d="M30.6918 99.8155C30.6918 99.8155 30.4859 97.677 28.3667 96.7761" stroke="#141F1F" stroke-linecap="round" stroke-linejoin="round"/>
<path d="M31.2704 102.974L29.4849 102.736" stroke="#141F1F" stroke-linecap="round" stroke-linejoin="round"/>
<path d="M31.5827 106.179C31.5827 106.179 28.3348 107.644 27.2911 109.455" stroke="#141F1F" stroke-linecap="round" stroke-linejoin="round"/>
<path d="M12.5243 116.758C12.5243 116.758 22.7901 139.992 22.6161 175.108" stroke="#141F1F" stroke-width="2" stroke-linecap="round" stroke-linejoin="round"/>
<path d="M25.1826 114.358C25.1826 114.358 24.8525 118.337 22.5168 118.275C20.1811 118.213 19.0523 112.874 16.5959 113.851C14.1395 114.828 13.5573 120.489 13.5573 120.489C13.5573 120.489 15.9711 118.256 17.107 119.641C18.2429 121.025 17.8489 122.922 17.21 122.547C16.571 122.173 13.0994 120.741 12.7586 124.283C12.6481 125.294 12.6918 126.325 12.887 127.313C13.0822 128.302 13.4249 129.227 13.8945 130.034C13.8945 130.034 16.784 124.045 18.5589 125.392C20.3337 126.739 16.9153 127.365 15.4351 129.541C13.9549 131.717 12.9503 134.069 14.072 135.037C15.0184 135.972 15.8913 137.033 16.6775 138.204C16.6775 138.204 16.5604 134.885 18.1897 132.49C19.819 130.096 20.9549 131.48 19.4747 133.657C17.9944 135.833 18.4382 139.551 18.4382 139.551C18.4382 139.551 22.3428 140.342 25.2749 139.119C28.207 137.896 28.2957 136.431 27.4686 135.027C26.6415 133.624 23.6065 131.523 24.6289 130.001C25.6512 128.479 27.5432 137.516 29.0376 135.757C30.532 133.998 31.0822 131.883 30.4007 130.262L29.7227 128.64C29.7227 128.64 26.6877 126.544 25.8606 125.136C25.0335 123.728 26.3043 124.486 27.7384 125.435C29.1725 126.383 32.2394 129.313 32.5199 128.465C32.8003 127.616 32.0194 123.083 31.5011 121.66C30.9828 120.238 26.3469 120.963 25.8606 120.352C25.3743 119.74 27.962 118.137 28.7465 118.299C29.3303 118.429 29.9085 118.6 30.4788 118.811C30.4788 118.811 30.7024 116.302 28.2744 113.751C25.8464 111.2 25.1826 114.358 25.1826 114.358Z" fill="#426868"/>
<path opacity="0.3" d="M25.1826 114.358C25.1826 114.358 24.8525 118.337 22.5168 118.275C20.1811 118.213 19.0523 112.874 16.5959 113.851C14.1395 114.828 13.5573 120.489 13.5573 120.489C13.5573 120.489 15.9711 118.256 17.107 119.641C18.2429 121.025 17.8489 122.922 17.21 122.547C16.571 122.173 13.0994 120.741 12.7586 124.283C12.6481 125.294 12.6918 126.325 12.887 127.313C13.0822 128.302 13.4249 129.227 13.8945 130.034C13.8945 130.034 16.784 124.045 18.5589 125.392C20.3337 126.739 16.9153 127.365 15.4351 129.541C13.9549 131.717 12.9503 134.069 14.072 135.037C15.0184 135.972 15.8913 137.033 16.6775 138.204C16.6775 138.204 16.5604 134.885 18.1897 132.49C19.819 130.096 20.9549 131.48 19.4747 133.657C17.9944 135.833 18.4382 139.551 18.4382 139.551C18.4382 139.551 22.3428 140.342 25.2749 139.119C28.207 137.896 28.2957 136.431 27.4686 135.027C26.6415 133.624 23.6065 131.523 24.6289 130.001C25.6512 128.479 27.5432 137.516 29.0376 135.757C30.532 133.998 31.0822 131.883 30.4007 130.262L29.7227 128.64C29.7227 128.64 26.6877 126.544 25.8606 125.136C25.0335 123.728 26.3043 124.486 27.7384 125.435C29.1725 126.383 32.2394 129.313 32.5199 128.465C32.8003 127.616 32.0194 123.083 31.5011 121.66C30.9828 120.238 26.3469 120.963 25.8606 120.352C25.3743 119.74 27.962 118.137 28.7465 118.299C29.3303 118.429 29.9085 118.6 30.4788 118.811C30.4788 118.811 30.7024 116.302 28.2744 113.751C25.8464 111.2 25.1826 114.358 25.1826 114.358Z" fill="#141F1F"/>
<path d="M22.7864 133.718C22.2398 130.304 21.6221 125.477 21.8777 122.267" stroke="#141F1F" stroke-linecap="round" stroke-linejoin="round"/>
<path d="M23.5284 137.773C23.5284 137.773 23.3367 136.824 23.0847 135.402" stroke="#141F1F" stroke-linecap="round" stroke-linejoin="round"/>
<path d="M22.9426 121.575C22.9426 121.575 27.1632 121.935 30.2124 124.448" stroke="#141F1F" stroke-linecap="round" stroke-linejoin="round"/>
<path d="M22.7937 126.179C22.7937 126.179 22.9144 125.131 26.1695 129.086" stroke="#141F1F" stroke-linecap="round" stroke-linejoin="round"/>
<path d="M20.7383 120.883C20.7383 120.883 20.6496 118.393 18.2535 117.089" stroke="#141F1F" stroke-linecap="round" stroke-linejoin="round"/>
<path d="M21.1821 124.6L19.1375 124.107" stroke="#141F1F" stroke-linecap="round" stroke-linejoin="round"/>
<path d="M21.3134 128.337C21.3134 128.337 17.462 129.622 16.1309 131.58" stroke="#141F1F" stroke-linecap="round" stroke-linejoin="round"/>
<path d="M25.1825 147.588C25.1825 147.588 24.8524 151.566 22.5167 151.504C20.181 151.443 19.0521 146.094 16.5957 147.09C14.1393 148.085 13.5572 153.728 13.5572 153.728C13.5572 153.728 15.971 151.495 17.1069 152.879C18.2428 154.264 17.8488 156.16 17.2098 155.786C16.5709 155.411 13.0957 153.965 12.755 157.526C12.6445 158.538 12.6881 159.568 12.8833 160.557C13.0785 161.545 13.4212 162.471 13.8909 163.278C13.8909 163.278 16.7839 157.275 18.5587 158.621C20.3336 159.968 16.9152 160.594 15.435 162.77C13.9548 164.947 12.9502 167.299 14.0719 168.266C15.0183 169.201 15.8912 170.263 16.6774 171.433C16.6774 171.433 16.5602 168.114 18.1896 165.72C19.8189 163.325 20.9548 164.71 19.4746 166.886C17.9943 169.062 18.438 172.78 18.438 172.78C18.438 172.78 22.3427 173.572 25.2748 172.348C28.2069 171.125 28.2956 169.66 27.4685 168.256C26.6414 166.853 23.6064 164.752 24.6287 163.23C25.6511 161.708 27.5431 170.746 29.0375 168.987C30.5319 167.227 31.0821 165.113 30.4006 163.491L29.7226 161.869C29.7226 161.869 26.6876 159.774 25.8605 158.365C25.0334 156.957 26.3042 157.716 27.7383 158.664C29.1724 159.612 32.2393 162.543 32.5198 161.694C32.8002 160.845 32.0192 156.312 31.501 154.89C30.9827 153.467 26.3468 154.155 25.8605 153.581C25.3742 153.007 27.9619 151.367 28.7464 151.528C29.3301 151.658 29.9084 151.829 30.4787 152.04C30.4787 152.04 30.7023 149.532 28.2743 146.981C25.8463 144.43 25.1825 147.588 25.1825 147.588Z" fill="#426868"/>
<path opacity="0.3" d="M25.1825 147.588C25.1825 147.588 24.8524 151.566 22.5167 151.504C20.181 151.443 19.0521 146.094 16.5957 147.09C14.1393 148.085 13.5572 153.728 13.5572 153.728C13.5572 153.728 15.971 151.495 17.1069 152.879C18.2428 154.264 17.8488 156.16 17.2098 155.786C16.5709 155.411 13.0957 153.965 12.755 157.526C12.6445 158.538 12.6881 159.568 12.8833 160.557C13.0785 161.545 13.4212 162.471 13.8909 163.278C13.8909 163.278 16.7839 157.275 18.5587 158.621C20.3336 159.968 16.9152 160.594 15.435 162.77C13.9548 164.947 12.9502 167.299 14.0719 168.266C15.0183 169.201 15.8912 170.263 16.6774 171.433C16.6774 171.433 16.5602 168.114 18.1896 165.72C19.8189 163.325 20.9548 164.71 19.4746 166.886C17.9943 169.062 18.438 172.78 18.438 172.78C18.438 172.78 22.3427 173.572 25.2748 172.348C28.2069 171.125 28.2956 169.66 27.4685 168.256C26.6414 166.853 23.6064 164.752 24.6287 163.23C25.6511 161.708 27.5431 170.746 29.0375 168.987C30.5319 167.227 31.0821 165.113 30.4006 163.491L29.7226 161.869C29.7226 161.869 26.6876 159.774 25.8605 158.365C25.0334 156.957 26.3042 157.716 27.7383 158.664C29.1724 159.612 32.2393 162.543 32.5198 161.694C32.8002 160.845 32.0192 156.312 31.501 154.89C30.9827 153.467 26.3468 154.155 25.8605 153.581C25.3742 153.007 27.9619 151.367 28.7464 151.528C29.3301 151.658 29.9084 151.829 30.4787 152.04C30.4787 152.04 30.7023 149.532 28.2743 146.981C25.8463 144.43 25.1825 147.588 25.1825 147.588Z" fill="#141F1F"/>
<path d="M22.7864 166.957C22.2398 163.548 21.6221 158.721 21.8777 155.511" stroke="#141F1F" stroke-linecap="round" stroke-linejoin="round"/>
<path d="M23.5284 171.002C23.5284 171.002 23.3367 170.054 23.0847 168.631" stroke="#141F1F" stroke-linecap="round" stroke-linejoin="round"/>
<path d="M22.9426 154.804C22.9426 154.804 27.1632 155.165 30.2124 157.678" stroke="#141F1F" stroke-linecap="round" stroke-linejoin="round"/>
<path d="M22.7937 159.394C22.7937 159.394 22.9144 158.347 26.1695 162.301" stroke="#141F1F" stroke-linecap="round" stroke-linejoin="round"/>
<path d="M20.7383 154.112C20.7383 154.112 20.6496 151.623 18.2535 150.319" stroke="#141F1F" stroke-linecap="round" stroke-linejoin="round"/>
<path d="M21.1821 157.83L19.1375 157.336" stroke="#141F1F" stroke-linecap="round" stroke-linejoin="round"/>
<path d="M21.3134 161.566C21.3134 161.566 17.462 162.851 16.1309 164.809" stroke="#141F1F" stroke-linecap="round" stroke-linejoin="round"/>
<path d="M16.5249 144.415C16.5249 144.415 23.138 165.345 23.8338 175.34L22.4423 127.682" stroke="#141F1F" stroke-width="2" stroke-linecap="round" stroke-linejoin="round"/>
<path d="M32.534 139.536C23.8336 137.441 23.8336 175.341 23.8336 175.341" stroke="#141F1F" stroke-width="2" stroke-linecap="round" stroke-linejoin="round"/>
<path d="M24.8773 175.108C24.8773 175.108 19.8296 111.874 34.4615 111.874" stroke="#141F1F" stroke-width="2" stroke-linecap="round" stroke-linejoin="round"/>
<path d="M29.2079 138.123C28.0188 136.341 25.4949 136.341 24.0076 140.902C22.5203 145.463 23.8834 144.672 23.8834 144.672C23.8834 144.672 26.7231 143.481 28.498 142.69C30.2728 141.898 32.6582 139.911 32.8038 141.101C32.9493 142.291 31.6182 143.472 29.9818 143.88C28.3454 144.288 24.0395 145.866 24.4868 147.057C24.9341 148.247 25.9706 151.798 25.9706 151.798C27.241 150.359 28.581 149.033 29.9818 147.83C31.9128 146.241 33.102 146.839 32.0619 148.621C31.0218 150.404 28.0507 152.415 28.6471 154.785C29.2434 157.156 32.8038 160.144 32.8038 160.144C32.8038 160.144 33.2511 155.184 34.2911 153.595C35.3312 152.007 35.3312 153.794 35.033 156.573C34.8855 157.755 34.7872 158.947 34.7384 160.144L38.8951 162.126C38.8951 162.126 40.3824 159.153 41.1243 158.157L41.8662 157.166C41.8662 157.166 38.6005 153.396 38.4514 151.002C38.3023 148.607 40.6806 151.002 41.4225 151.395C42.1644 151.789 43.3535 154.572 43.3535 154.572C43.3535 154.572 44.0954 150.006 44.2445 148.408L44.3936 146.82C44.3936 146.82 41.2734 145.231 40.0842 145.231C38.8951 145.231 38.3094 146.421 38.3094 144.833C38.3094 143.244 39.4985 142.253 40.8332 142.462C42.044 142.732 43.2369 143.13 44.4007 143.652C44.4007 143.652 45.2917 142.661 44.9935 139.683C44.6953 136.706 43.9534 136.706 42.1715 137.502C40.3895 138.299 39.2004 140.082 37.8621 140.082C36.5239 140.082 37.2693 137.896 38.1603 137.303C39.0513 136.71 41.2805 135.515 41.7278 135.316C42.175 135.117 39.3495 132.343 37.8621 131.945C36.3748 131.547 34.4544 132.946 34.5964 134.923C34.8626 139.119 30.4077 139.93 29.2079 138.123Z" fill="#426868"/>
<path d="M38.7921 158.555C38.8383 159.157 38.8702 159.755 38.8844 160.352" stroke="#141F1F" stroke-linecap="round" stroke-linejoin="round"/>
<path d="M35.7963 144.311C37.1015 148.241 38.0409 152.371 38.5934 156.606" stroke="#141F1F" stroke-linecap="round" stroke-linejoin="round"/>
<path d="M35.2638 142.718C34.5254 140.603 33.9717 139.314 33.9717 139.314C34.7817 138.806 35.4556 137.978 35.9027 136.943C36.2518 136.007 36.7614 135.195 37.3901 134.572" stroke="#141F1F" stroke-linecap="round" stroke-linejoin="round"/>
<path d="M28.7749 146.061C28.7749 146.061 34.1208 143.088 34.1208 143.69" stroke="#141F1F" stroke-linecap="round" stroke-linejoin="round"/>
<path d="M37.0918 142.301C37.0918 142.301 39.4701 140.712 41.5502 140.712" stroke="#141F1F" stroke-linecap="round" stroke-linejoin="round"/>
<path d="M36.2009 147.042C35.1636 148.18 34.2125 149.45 33.3611 150.836C32.4924 152.2 31.7904 153.74 31.281 155.397" stroke="#141F1F" stroke-linecap="round" stroke-linejoin="round"/>
<path d="M37.8337 147.848C37.8337 147.848 40.9539 146.658 42.5904 148.64" stroke="#141F1F" stroke-linecap="round" stroke-linejoin="round"/>
<path d="M43.4849 121.034C41.8697 119.759 40.0807 119.73 39.2039 118.379C38.3271 117.028 40.0487 116.35 40.9788 116.857C41.9088 117.364 44.0351 118.834 44.4397 119.152C44.8444 119.47 44.564 114.804 43.815 113.045C43.066 111.286 41.0143 110.266 39.9884 111.703C37.8266 114.733 34.4579 110.755 34.6887 108.384C34.9194 106.013 33.2688 103.467 29.7191 104.96C26.1694 106.454 27.4899 107.284 27.4899 107.284C27.4899 107.284 30.0137 109.346 31.6324 110.603C33.251 111.859 35.9275 112.974 35.3525 113.922C34.7774 114.87 33.2226 114.282 31.9305 112.898C30.6385 111.513 26.9148 108.204 26.535 109.432C26.1552 110.66 24.8134 114.055 24.8134 114.055C26.4596 114.385 28.0878 114.86 29.6871 115.477C31.8525 116.388 32.2926 117.976 30.603 118.095C28.9133 118.213 25.8428 116.52 24.8844 118.683C23.9259 120.845 24.5826 126.392 24.5826 126.392C24.5826 126.392 27.6815 123.59 29.2576 123.595C30.8337 123.6 29.8291 124.776 28.0649 126.298C27.2982 126.922 26.5586 127.604 25.8499 128.341L27.4331 133.87C27.4331 133.87 30.0882 133.396 31.139 133.514L32.2039 133.614C32.2039 133.614 32.2039 127.848 33.4392 126.136C34.6745 124.425 34.9017 128.384 35.1643 129.394C35.427 130.404 34.6354 133.42 34.6354 133.42C34.6354 133.42 37.7024 131.177 38.6963 130.29L39.6938 129.399C39.6938 129.399 38.5437 125.207 37.7663 124.012C36.9889 122.817 35.924 122.993 36.8221 121.954C37.7201 120.916 39.0584 121.48 39.8216 122.941C40.4639 124.337 41.0206 125.801 41.4864 127.317C41.4864 127.317 42.6329 127.564 44.1203 125.311C45.6076 123.059 45.1035 122.315 43.4849 121.034ZM29.428 127.388C28.2388 126.592 31.0609 125.017 31.0609 125.017C32.1009 124.809 30.6278 128.18 29.428 127.388ZM31.43 119.977C30.9224 119.64 32.4417 118.962 32.4417 118.962C34.6354 119.541 31.9341 120.318 31.43 119.977Z" fill="#426868"/>
<path d="M29.3962 131.428C29.0873 131.864 28.7679 132.291 28.4413 132.699" stroke="#141F1F" stroke-linecap="round" stroke-linejoin="round"/>
<path d="M35.491 119.067C34.1267 122.968 32.4088 126.631 30.3759 129.973" stroke="#141F1F" stroke-linecap="round" stroke-linejoin="round"/>
<path d="M36.0411 117.497C36.7511 115.368 37.1061 113.965 37.1061 113.965C37.9268 114.448 38.8389 114.582 39.7186 114.349C40.478 114.084 41.2735 114.063 42.0401 114.287" stroke="#141F1F" stroke-linecap="round" stroke-linejoin="round"/>
<path d="M29.8966 113.144C29.8966 113.144 35.0863 116.587 34.7491 116.976" stroke="#141F1F" stroke-linecap="round" stroke-linejoin="round"/>
<path d="M37.4823 119.067C37.4823 119.067 39.9387 120.423 41.3018 122.523" stroke="#141F1F" stroke-linecap="round" stroke-linejoin="round"/>
<path d="M34.2059 121.286C32.8905 120.99 31.5567 120.864 30.2231 120.911C28.8818 120.931 27.551 121.232 26.2794 121.803" stroke="#141F1F" stroke-linecap="round" stroke-linejoin="round"/>
<path d="M34.8271 123.453C34.8271 123.453 37.5462 125.823 37.4965 128.768" stroke="#141F1F" stroke-linecap="round" stroke-linejoin="round"/>
<path d="M20.4011 148.531C19.0983 147.502 17.6607 147.483 16.9543 146.398C16.2479 145.312 17.6359 144.762 18.3742 145.169C19.1125 145.577 20.8342 146.763 21.1607 147.019C21.4873 147.275 21.2601 143.519 20.6567 142.102C20.0532 140.684 18.4026 139.864 17.5791 141.021C15.8397 143.462 13.1277 140.262 13.3194 138.356C13.5111 136.45 12.1729 134.396 9.31179 135.601C6.45072 136.805 7.53693 137.469 7.53693 137.469C7.53693 137.469 9.56737 139.133 10.8701 140.158C12.1729 141.182 14.3275 142.054 13.8625 142.818C13.3975 143.581 12.1551 143.112 11.1115 141.993C10.0679 140.874 7.07192 138.199 6.76664 139.204C6.46137 140.21 5.38226 142.927 5.38226 142.927C6.70154 143.199 8.00593 143.587 9.28694 144.088C11.0298 144.819 11.3848 146.094 10.0253 146.194C8.66574 146.293 6.19159 144.928 5.41065 146.668C4.62972 148.408 5.16927 152.87 5.16927 152.87C5.16927 152.87 7.65407 150.613 8.93197 150.622C10.2099 150.632 9.38988 151.571 7.97 152.794C7.35559 153.297 6.76302 153.847 6.19514 154.439L7.48724 158.859C8.47587 158.682 9.47165 158.587 10.469 158.574L11.3103 158.655C11.3103 158.655 11.3103 154.013 12.3077 152.638C13.3052 151.262 13.4827 154.444 13.6921 155.26C13.9016 156.075 13.2697 158.498 13.2697 158.498C13.2697 158.498 15.7545 156.696 16.5355 155.98L17.3377 155.26C17.3377 155.26 16.4148 151.893 15.7865 150.926C15.1582 149.958 14.2991 150.105 15.0091 149.271C15.719 148.436 16.8088 148.873 17.4264 150.063C17.9414 151.188 18.3889 152.366 18.7647 153.586C18.7647 153.586 19.6876 153.785 20.8945 151.974C22.1014 150.162 21.7038 149.56 20.4011 148.531ZM9.08816 153.643C8.12973 153.003 10.4015 151.746 10.4015 151.746C11.2393 151.566 10.0395 154.283 9.08816 153.643ZM10.6997 147.683C10.2915 147.407 11.5126 146.867 11.5126 146.867C13.2804 147.317 11.1044 147.953 10.6997 147.683Z" fill="#426868"/>
<path d="M9.06337 156.895C8.81489 157.246 8.55931 157.588 8.29663 157.92" stroke="#141F1F" stroke-linecap="round" stroke-linejoin="round"/>
<path d="M13.969 146.957C12.8685 150.089 11.4857 153.03 9.85132 155.715" stroke="#141F1F" stroke-linecap="round" stroke-linejoin="round"/>
<path d="M14.4092 145.686C14.9842 143.97 15.2789 142.841 15.2789 142.841C15.9389 143.23 16.6723 143.34 17.3803 143.154C17.9908 142.939 18.6307 142.922 19.2474 143.102" stroke="#141F1F" stroke-linecap="round" stroke-linejoin="round"/>
<path d="M9.46448 142.182C9.46448 142.182 13.6425 144.951 13.3692 145.264" stroke="#141F1F" stroke-linecap="round" stroke-linejoin="round"/>
<path d="M15.5699 146.943C15.5699 146.943 17.5471 148.038 18.644 149.726" stroke="#141F1F" stroke-linecap="round" stroke-linejoin="round"/>
<path d="M12.9325 148.735C11.8776 148.495 10.8076 148.393 9.73777 148.432C8.65826 148.449 7.58744 148.692 6.56433 149.152" stroke="#141F1F" stroke-linecap="round" stroke-linejoin="round"/>
<path d="M13.4331 150.48C13.4331 150.48 15.6233 152.377 15.5629 154.748" stroke="#141F1F" stroke-linecap="round" stroke-linejoin="round"/>
<path d="M15.0943 115.748C15.0943 115.748 13.4615 117.336 12.4214 115.748C11.3813 114.159 12.8651 111.006 11.3813 109.797C9.89754 108.588 7.51924 110.788 7.51924 110.788C7.51924 110.788 9.45028 111.381 9.45028 112.77C9.45028 114.159 8.5593 114.757 8.41022 114.159C8.26113 113.562 7.22106 110.589 5.73373 111.978C5.30528 112.364 4.93973 112.861 4.6591 113.44C4.37847 114.02 4.18857 114.669 4.10087 115.349C4.10087 115.349 7.65058 114.557 7.96295 116.345C8.27533 118.133 6.47917 116.146 4.99184 116.146C3.50451 116.146 2.15207 116.544 2.31891 117.734C2.39985 118.789 2.39985 119.852 2.31891 120.906C3.09289 119.941 4.10062 119.379 5.15868 119.323C6.79155 119.323 6.79155 120.707 5.30777 120.707C3.82399 120.707 2.63128 122.694 2.63128 122.694C2.63128 122.694 4.11861 125.672 5.90057 127.061C7.68252 128.45 8.27888 127.853 8.42796 126.663C8.57705 125.473 7.9807 122.495 9.02077 122.495C10.0608 122.495 7.53699 127.853 8.87168 128.052C10.2064 128.251 11.25 127.654 11.5482 126.464L11.8428 125.273C11.8428 125.273 11.25 122.296 11.3991 121.106C11.5482 119.915 11.8428 121.106 12.141 122.495C12.4391 123.884 12.7338 127.26 13.181 127.061C13.6283 126.862 14.9559 124.282 15.2612 123.291C15.5664 122.3 13.181 119.498 13.181 118.924C13.181 118.351 14.9559 119.323 15.2612 119.915C15.477 120.364 15.6749 120.828 15.854 121.305C15.854 121.305 16.894 120.314 16.7449 117.535C16.5958 114.757 15.0943 115.748 15.0943 115.748Z" fill="#426868"/>
<path d="M6.77368 122.96C7.79955 121.063 9.32238 118.441 10.6358 117.151" stroke="#141F1F" stroke-linecap="round" stroke-linejoin="round"/>
<path d="M5.58472 125.288C5.58472 125.288 5.84739 124.738 6.27336 123.908" stroke="#141F1F" stroke-linecap="round" stroke-linejoin="round"/>
<path d="M11.3813 117.549C11.3813 117.549 13.1562 120.527 13.607 123.713" stroke="#141F1F" stroke-linecap="round" stroke-linejoin="round"/>
<path d="M9.5957 119.541C9.5957 119.541 10.043 119.147 10.043 123.116" stroke="#141F1F" stroke-linecap="round" stroke-linejoin="round"/>
<path d="M10.6359 115.748C10.6359 115.748 11.5304 114.557 10.934 112.376" stroke="#141F1F" stroke-linecap="round" stroke-linejoin="round"/>
<path d="M9.45027 117.749L8.70483 116.16" stroke="#141F1F" stroke-linecap="round" stroke-linejoin="round"/>
<path d="M8.11209 119.541C8.11209 119.541 5.88287 117.559 4.56238 117.559" stroke="#141F1F" stroke-linecap="round" stroke-linejoin="round"/>
<path d="M29.5629 157.948C29.5629 157.948 27.9265 159.532 26.8864 157.948C25.8464 156.364 27.3337 153.183 25.8464 151.993C24.359 150.802 21.9843 152.984 21.9843 152.984C21.9843 152.984 23.9153 153.581 23.9153 154.97C23.9153 156.36 23.0243 156.952 22.8752 156.36C22.7262 155.767 21.6861 152.784 20.2023 154.174C19.7729 154.559 19.4067 155.057 19.126 155.637C18.8453 156.218 18.6559 156.868 18.5694 157.55C18.5694 157.55 22.1192 156.753 22.4315 158.541C22.7439 160.328 20.9442 158.342 19.4604 158.342C17.9766 158.342 16.6384 158.74 16.7839 159.93C16.8648 160.986 16.8648 162.051 16.7839 163.107C17.5574 162.14 18.5652 161.576 19.6237 161.518C21.2566 161.518 21.2566 162.908 19.7692 162.908C18.2819 162.908 17.0963 164.89 17.0963 164.89C17.0963 164.89 18.5836 167.868 20.3656 169.257C22.1476 170.646 22.7404 170.053 22.8894 168.859C23.0385 167.664 22.4457 164.695 23.4858 164.695C24.5259 164.695 21.9985 170.053 23.3367 170.248C24.675 170.442 25.7115 169.854 26.0096 168.664L26.3078 167.469C26.3078 167.469 25.7115 164.496 25.8606 163.306C26.0096 162.116 26.3078 163.306 26.606 164.695C26.9042 166.085 27.1988 169.437 27.6461 169.257C28.0933 169.077 29.4209 166.478 29.7226 165.487C30.0244 164.496 27.6461 161.718 27.6461 161.12C27.6461 160.523 29.4209 161.518 29.7226 162.111C29.939 162.56 30.138 163.024 30.319 163.5C30.319 163.5 31.3591 162.509 31.21 159.731C31.0609 156.952 29.5629 157.948 29.5629 157.948Z" fill="#426868"/>
<path d="M21.2495 165.136C22.2754 163.216 23.7982 160.613 25.1151 159.328" stroke="#141F1F" stroke-linecap="round" stroke-linejoin="round"/>
<path d="M20.064 167.46C20.064 167.46 20.3266 166.91 20.7526 166.085" stroke="#141F1F" stroke-linecap="round" stroke-linejoin="round"/>
<path d="M25.8571 159.721C25.8571 159.721 27.6319 162.699 28.0863 165.886" stroke="#141F1F" stroke-linecap="round" stroke-linejoin="round"/>
<path d="M24.0751 161.708C24.0751 161.708 24.5223 161.31 24.5223 165.279" stroke="#141F1F" stroke-linecap="round" stroke-linejoin="round"/>
<path d="M25.1151 157.948C25.1151 157.948 26.0061 156.753 25.4133 154.572" stroke="#141F1F" stroke-linecap="round" stroke-linejoin="round"/>
<path d="M23.926 159.921L23.1841 158.332" stroke="#141F1F" stroke-linecap="round" stroke-linejoin="round"/>
<path d="M22.5913 161.708C22.5913 161.708 20.3621 159.721 19.0416 159.721" stroke="#141F1F" stroke-linecap="round" stroke-linejoin="round"/>
<path d="M30.0954 174.449H18.6121V196.531H30.0954V174.449Z" fill="#141F1F" stroke="#141F1F" stroke-width="2" stroke-linecap="round" stroke-linejoin="round"/>
<path d="M6.88013 196.531H249.29" stroke="#141F1F" stroke-linecap="round" stroke-linejoin="round"/>
<path d="M208.426 149.413L210.023 194.933" stroke="#141F1F" stroke-width="6" stroke-linecap="round" stroke-linejoin="round"/>
<path d="M201.259 149.413L203.034 194.933" stroke="#141F1F" stroke-width="6" stroke-linecap="round" stroke-linejoin="round"/>
<path d="M178.413 149.413L176.106 194.933" stroke="#141F1F" stroke-width="6" stroke-linecap="round" stroke-linejoin="round"/>
<path d="M173.191 149.413L167.689 194.933" stroke="#141F1F" stroke-width="6" stroke-linecap="round" stroke-linejoin="round"/>
<path d="M209.484 99.7634L209.601 147.815H176.975L178.14 99.7634H209.484Z" fill="#808080" stroke="#141F1F" stroke-linecap="round" stroke-linejoin="round"/>
<path d="M170.71 150.414H209.601V147.678H170.71V150.414Z" fill="#808080" stroke="#141F1F" stroke-linecap="round" stroke-linejoin="round"/>
<path d="M170.71 150.414H203.651V147.678H170.71V150.414Z" fill="#808080" stroke="#141F1F" stroke-linecap="round" stroke-linejoin="round"/>
<path d="M178.956 122.86C178.956 122.86 175.935 129.024 175.46 133.68C174.984 138.337 175.779 143.638 178.001 145.563C179.449 146.745 181.079 147.472 182.768 147.687H201.671C201.671 147.687 205.007 146.625 206.438 142.381C207.868 138.138 206.914 132.618 205.962 129.859C205.011 127.099 204.209 124.757 204.209 124.757L178.956 122.86Z" fill="#141F1F" stroke="#141F1F" stroke-linecap="round" stroke-linejoin="round"/>
<path d="M187.852 74.0212C187.852 74.0212 176.73 79.5404 176.095 81.0246C175.459 82.5087 181.022 111.793 181.022 111.793L178.161 123.889C182.517 125.121 186.919 126.044 191.348 126.653C198.018 127.502 204.532 124.956 204.532 124.956L201.99 110.731L206.122 81.0246C206.122 81.0246 197.958 75.8514 196.161 74.9363C194.365 74.0212 189.122 73.8268 187.852 74.0212Z" fill="#426868" stroke="#141F1F" stroke-linecap="round" stroke-linejoin="round"/>
<path d="M199.612 76.9847C198.107 76.0648 196.772 75.2635 196.162 74.9553C194.365 74.0402 189.122 73.8268 187.852 74.0402C187.852 74.0402 185.126 75.3915 182.296 76.9373L188.647 112.239L194.206 113.296L199.612 76.9847Z" fill="#426868" stroke="#141F1F" stroke-linecap="round" stroke-linejoin="round"/>
<path d="M193.787 126.838L195.736 74.7751C193.648 74.0117 189.034 73.8268 187.852 74.0402L186.943 74.5144L189.023 126.345C189.79 126.468 190.567 126.582 191.348 126.682C192.129 126.781 192.984 126.824 193.787 126.838Z" fill="white" stroke="#141F1F" stroke-linecap="round" stroke-linejoin="round"/>
<path d="M176.095 81.0436C176.095 81.0436 165.929 118.393 167.675 119.664C169.421 120.935 189.758 121.362 189.758 121.362V118.393L176.269 111.812L178.97 100.143L176.095 81.0436Z" fill="#426868" stroke="#141F1F" stroke-linecap="round" stroke-linejoin="round"/>
<path d="M189.758 118.393C189.758 118.393 195.16 117.545 195.636 117.545C196.112 117.545 200.4 121.575 200.4 121.575L189.751 121.362L189.758 118.393Z" fill="white" stroke="#141F1F" stroke-linecap="round" stroke-linejoin="round"/>
<path d="M206.076 81.0436C206.076 81.0436 216.246 118.393 214.496 119.664C212.746 120.935 192.417 121.362 192.417 121.362V118.393L205.906 111.812L203.343 100.769L206.076 81.0436Z" fill="#426868" stroke="#141F1F" stroke-linecap="round" stroke-linejoin="round"/>
<path d="M210.47 111.006C210.802 111.008 211.134 111.046 211.461 111.12" stroke="#141F1F" stroke-linecap="round" stroke-linejoin="round"/>
<path d="M205.92 111.812C207.202 111.401 208.508 111.133 209.824 111.011" stroke="#141F1F" stroke-linecap="round" stroke-linejoin="round"/>
<path d="M192.416 118.393C192.416 118.393 187.014 117.545 186.538 117.545C186.062 117.545 181.771 121.575 181.771 121.575L192.42 121.362L192.416 118.393Z" fill="white" stroke="#141F1F" stroke-linecap="round" stroke-linejoin="round"/>
<path d="M206.633 132.116C205.362 125.155 200.432 123.856 196.073 123.377C191.714 122.898 188.807 124.624 188.807 124.624C188.807 124.624 195.906 125.098 196.804 131.584L193.915 140.94C193.915 140.94 193.368 143.102 196.094 146.459" fill="#141F1F"/>
<path d="M206.633 132.116C205.362 125.155 200.432 123.856 196.073 123.377C191.714 122.898 188.807 124.624 188.807 124.624C188.807 124.624 195.906 125.098 196.804 131.584L193.915 140.94C193.915 140.94 193.368 143.102 196.094 146.459" stroke="#141F1F" stroke-linecap="round" stroke-linejoin="round"/>
<path d="M195.061 134.984C195.356 139.529 195.844 144.047 196.524 148.517C197.663 156.032 202.704 183.306 203.03 184.383C203.357 185.459 207.095 192.543 206.445 195.118C205.795 197.692 204.983 197.488 203.516 195.549C202.05 193.61 200.592 185.454 200.428 184.596C200.265 183.738 191.81 164.406 189.208 155.601C186.606 146.796 184.976 141.85 185.793 135.416C186.609 128.981 189.531 128.777 191.827 129.617C194.124 130.456 195.061 134.984 195.061 134.984Z" fill="white" stroke="#141F1F" stroke-linecap="round" stroke-linejoin="round"/>
<path d="M194.933 137.275L189.208 155.601L187.674 150.148L194.933 137.275Z" fill="#141F1F" stroke="#141F1F" stroke-miterlimit="10"/>
<path d="M206.445 195.118C206.8 193.728 205.866 191.021 204.887 188.66C203.705 191.03 202.459 190.789 201.585 190.082C202.139 192.344 202.828 194.639 203.516 195.549C204.983 197.484 205.795 197.697 206.445 195.118Z" fill="#141F1F" stroke="#141F1F" stroke-linecap="round" stroke-linejoin="round"/>
<path d="M196.272 129.024C196.272 129.024 193.56 122.637 189.3 124.543C185.04 126.449 175.953 168.048 173.096 173.989C172.358 175.528 171.564 177.015 170.714 178.446C169.211 179.004 167.659 179.289 166.099 179.295C163.557 179.295 161.332 179.295 163.238 181.414C165.144 183.534 169.116 185.023 171.182 185.445C173.248 185.867 174.359 180.566 174.359 180.566C174.359 180.566 186.592 152.77 188.814 149.797C191.036 146.824 195.171 137.279 195.963 135.368C196.754 133.458 196.588 130.921 196.272 129.024Z" fill="white" stroke="#141F1F" stroke-linecap="round" stroke-linejoin="round"/>
<path d="M174.167 181.291C171.899 181.614 168.31 182.05 168.31 182.05L167.054 179.252C166.741 179.276 166.418 179.295 166.088 179.295C163.547 179.295 161.321 179.295 163.227 181.414C165.133 183.534 169.106 185.023 171.172 185.445C172.755 185.772 173.777 182.728 174.167 181.291Z" fill="#141F1F" stroke="#141F1F" stroke-linecap="round" stroke-linejoin="round"/>
<path d="M184.611 57.5962C184.611 57.5962 183.006 59.3127 183.326 61.2425C183.645 63.1724 182.847 66.1691 181.721 66.6006C180.596 67.0321 181.721 68.9714 182.524 69.1705L183.326 69.3839C183.326 69.3839 184.128 74.7419 184.77 75.3868C185.413 76.0317 187.82 75.3868 187.82 75.3868C187.82 75.3868 188.622 82.4566 189.744 84.5998C190.865 86.743 191.519 87.1698 192.938 84.3864C194.358 81.6031 196.133 74.9553 196.133 74.9553C196.133 74.9553 196.616 67.8855 195.331 62.9542C194.046 58.023 189.264 51.598 184.611 57.5962Z" fill="white" stroke="#141F1F" stroke-linecap="round" stroke-linejoin="round"/>
<path d="M184.859 64.8224C184.859 65.3724 184.714 65.8181 184.533 65.8181C184.352 65.8181 184.206 65.3724 184.206 64.8224C184.206 64.2724 184.355 63.8267 184.533 63.8267C184.71 63.8267 184.859 64.2724 184.859 64.8224Z" fill="#141F1F"/>
<path d="M184.021 62.4563C184.021 62.4563 184.767 61.3373 185.42 62.8309" stroke="#141F1F" stroke-linecap="round" stroke-linejoin="round"/>
<path d="M184.394 70.702C184.394 70.702 184.859 70.9486 185.977 69.8296" stroke="#141F1F" stroke-linecap="round" stroke-linejoin="round"/>
<path d="M185.974 50.4409C185.974 50.4409 182.605 52.2996 183.407 56.2589C184.21 60.2182 188.863 63.4709 190.305 66.7284C191.746 69.9859 191.43 73.4805 190.305 74.8746C189.179 76.2686 188.381 76.5057 188.381 76.5057C190.835 78.3286 193.595 79.2896 196.403 79.2985C201.057 79.2985 202.956 72.8831 202.633 68.6962C202.31 64.5093 201.472 54.6705 198.103 51.6263C194.735 48.5822 189.183 48.3451 185.974 50.4409Z" fill="#141F1F" stroke="#141F1F" stroke-linecap="round" stroke-linejoin="round"/>
<path d="M114.855 149.413L113.258 194.933" stroke="#141F1F" stroke-width="6" stroke-linecap="round" stroke-linejoin="round"/>
<path d="M132.249 149.413L130.474 194.933" stroke="#141F1F" stroke-width="6" stroke-linecap="round" stroke-linejoin="round"/>
<path d="M140.946 149.413L143.253 194.933" stroke="#141F1F" stroke-width="6" stroke-linecap="round" stroke-linejoin="round"/>
<path d="M150.175 149.413L155.677 194.933" stroke="#141F1F" stroke-width="6" stroke-linecap="round" stroke-linejoin="round"/>
<path d="M112.143 99.7634L113.677 147.815H142.383L139.568 99.7634H112.143Z" fill="#808080" stroke="#141F1F" stroke-linecap="round" stroke-linejoin="round"/>
<path d="M152.656 147.677H113.677V150.413H152.656V147.677Z" fill="#808080" stroke="#141F1F" stroke-linecap="round" stroke-linejoin="round"/>
<path d="M152.656 147.677H129.533V150.413H152.656V147.677Z" fill="#808080" stroke="#141F1F" stroke-linecap="round" stroke-linejoin="round"/>
<path d="M117.241 123.59C117.241 123.59 115.8 140.968 116.279 143.239C116.485 144.241 116.88 145.155 117.427 145.895C117.973 146.635 118.652 147.175 119.399 147.464C120.719 147.938 139.047 147.464 139.554 147.464C142.472 147.54 143.054 145.539 143.154 141.618C143.264 137.35 142.799 122.386 142.799 122.386L117.241 123.59Z" fill="#141F1F" stroke="#141F1F" stroke-linecap="round" stroke-linejoin="round"/>
<path d="M123.478 76.2259C123.478 76.2259 112.711 81.9159 113.066 82.8642C113.421 83.8125 116.616 111.48 116.747 112.262C116.879 113.045 117.102 122.22 117.102 123.007C117.102 123.794 117.812 125.221 118.522 125.378C122.228 126.203 126.257 125.776 130.006 125.852C132.54 125.893 135.072 125.904 137.602 125.885C139.093 125.885 142.572 126.833 143.129 124.61C143.367 122.869 143.356 83.8315 143.484 81.9348C143.612 80.0382 142.185 79.564 140.644 78.4592C139.103 77.3544 132.008 74.8224 131.298 74.8224C130.588 74.8224 123.478 76.2259 123.478 76.2259Z" fill="white" stroke="#141F1F" stroke-linecap="round" stroke-linejoin="round"/>
<path d="M126.566 85.2494L128.965 89.7397L126.225 117.18L130.542 123.273L134.02 116.222L130.527 89.2561L132.086 84.7705L127.645 81.4039L126.566 85.2494Z" fill="#141F1F" stroke="#141F1F" stroke-linecap="round" stroke-linejoin="round"/>
<path d="M124.305 74.8036C124.305 74.8036 122.885 75.4342 122.768 76.7002C122.65 77.9662 123.005 87.9237 123.005 87.9237L127.62 85.5528L129.629 84.9269L134.844 86.2214C134.844 86.2214 134.719 80.503 133.889 77.658C133.058 74.813 132.114 73.8647 131.404 73.7082C130.694 73.5518 124.305 74.8036 124.305 74.8036Z" fill="white" stroke="#141F1F" stroke-linecap="round" stroke-linejoin="round"/>
<path d="M123.595 74.3292C123.595 74.3292 124.897 80.8111 125.37 81.9159C125.842 83.0207 128.919 86.3398 129.629 84.9173C130.339 83.4948 131.049 79.7015 131.17 79.2273C131.291 78.7532 131.404 73.6986 131.404 73.6986C131.404 73.6986 125.725 76.3918 123.595 74.3292Z" fill="white" stroke="#141F1F" stroke-linecap="round" stroke-linejoin="round"/>
<path d="M125.916 78.4545C125.916 78.4545 126.047 78.72 127.79 79.7063C128.737 80.2789 129.762 80.5825 130.801 80.5977L131.134 78.9002L131.337 74.3387L125.916 78.4545Z" fill="#141F1F" stroke="#141F1F" stroke-miterlimit="10"/>
<path d="M134.805 62.3188C134.805 62.3188 135.22 57.1409 134.805 54.1822C134.389 51.2234 132.036 50.3035 130.236 49.9147C128.437 49.5259 120.826 50.4695 119.857 53.2338C118.888 55.9982 120.964 58.222 120.964 58.222C120.964 58.222 119.718 59.3316 120.272 60.811C120.826 62.2903 121.518 64.3245 121.518 64.3245L122.349 60.057L128.16 60.242L130.375 60.9817L132.728 64.8651C132.728 64.8651 133.974 65.2349 134.389 64.4952C134.805 63.7555 134.805 62.3188 134.805 62.3188Z" fill="#141F1F" stroke="#141F1F" stroke-linecap="round" stroke-linejoin="round"/>
<path d="M121.703 63.5896C121.703 63.5896 120.521 61.8541 120.521 63.7508C120.521 65.6474 121.941 67.5441 121.941 67.5441L121.703 63.5896Z" stroke="#141F1F" stroke-linecap="round" stroke-linejoin="round"/>
<path d="M121.518 58.8053C121.518 58.8053 121.657 69.1563 121.934 71.1905C122.21 73.2246 125.533 78.5874 126.225 78.5874C126.917 78.5874 127.883 78.9573 128.71 78.0326C129.537 77.108 133.002 72.8548 133.278 71.5603C133.489 70.2831 133.628 68.9866 133.694 67.6816C133.694 67.6816 135.909 66.2023 135.632 63.9832C135.355 61.7641 134.524 61.5792 134.109 62.1339C133.713 62.721 133.343 63.3385 133.002 63.9832C133.002 63.9832 132.725 62.1339 132.171 61.3942C131.617 60.6545 129.956 60.2847 130.233 59.545L131.756 55.4767C131.756 55.4767 129.125 58.4355 126.637 58.9902C124.934 59.2992 123.206 59.2367 121.518 58.8053Z" fill="white" stroke="#141F1F" stroke-linecap="round" stroke-linejoin="round"/>
<path d="M124.099 63.8883C124.099 64.4051 123.904 64.8366 123.659 64.8366C123.414 64.8366 123.219 64.4241 123.219 63.8883C123.219 63.3525 123.417 62.9399 123.659 62.9399C123.9 62.9399 124.099 63.3762 124.099 63.8883Z" fill="#141F1F"/>
<path d="M128.568 63.8883C128.568 64.4051 128.373 64.8366 128.128 64.8366C127.883 64.8366 127.688 64.4241 127.688 63.8883C127.688 63.3525 127.886 62.9399 128.128 62.9399C128.369 62.9399 128.568 63.3762 128.568 63.8883Z" fill="#141F1F"/>
<path d="M125.27 63.6464C125.27 63.6464 124.244 68.9285 124.684 69.2225C125.125 69.5165 127.617 68.2458 127.617 68.2458" stroke="#141F1F" stroke-linecap="round" stroke-linejoin="round"/>
<path d="M124.695 69.2226C124.097 69.5131 123.53 69.9086 123.009 70.3985C122.352 71.0813 123.524 71.6692 125.061 71.6692C126.598 71.6692 128.578 71.5744 129.459 70.9864C130.339 70.3985 129.604 69.9101 128.873 69.5165C128.204 69.2157 127.518 68.9873 126.821 68.8337C126.821 68.8337 125.405 69.1277 124.695 69.2226Z" fill="#141F1F" stroke="#141F1F" stroke-linecap="round" stroke-linejoin="round"/>
<path d="M122.707 61.7877C122.707 61.7877 123.368 60.8062 124.614 61.5886" stroke="#141F1F" stroke-linecap="round" stroke-linejoin="round"/>
<path d="M126.736 61.6929C127.164 61.3945 127.653 61.2904 128.129 61.3965C128.605 61.5026 129.042 61.8131 129.374 62.2809" stroke="#141F1F" stroke-linecap="round" stroke-linejoin="round"/>
<path d="M113.066 82.8643C113.066 82.8643 105.612 111.314 105.612 111.788C105.612 112.262 104.547 114.946 105.612 116.686C106.677 118.427 108.569 119.057 109.634 118.427C110.699 117.796 116.261 104.676 116.261 104.676C116.261 104.676 113.421 84.4527 113.066 82.8643Z" fill="white" stroke="#141F1F" stroke-linecap="round" stroke-linejoin="round"/>
<path d="M113.719 93.4571L113.347 91.845" stroke="#141F1F" stroke-linecap="round" stroke-linejoin="round"/>
<path d="M115.761 102.286L114.089 95.0598" stroke="#141F1F" stroke-linecap="round" stroke-linejoin="round"/>
<path d="M107.28 108.005L128.699 95.8328L129.171 98.8342C129.171 98.8342 112.96 115.591 111.778 116.852C110.596 118.114 110.12 119.067 108.583 119.067C107.046 119.067 105.033 117.17 105.033 114.643C105.062 113.003 105.343 111.389 105.86 109.901" fill="white"/>
<path d="M107.28 108.005L128.699 95.8328L129.171 98.8342C129.171 98.8342 112.96 115.591 111.778 116.852C110.596 118.114 110.12 119.067 108.583 119.067C107.046 119.067 105.033 117.17 105.033 114.643C105.062 113.003 105.343 111.389 105.86 109.901" stroke="#141F1F" stroke-linecap="round" stroke-linejoin="round"/>
<path d="M126.3 97.4827L127.105 100.176" stroke="#141F1F" stroke-linecap="round" stroke-linejoin="round"/>
<path d="M128.699 95.8326C128.699 95.8326 129.409 92.357 129.643 91.8828C129.878 91.4087 131.301 90.1427 131.894 89.512C132.487 88.8814 133.431 87.7718 133.548 88.5637C133.665 89.3555 132.128 91.7216 132.128 91.7216C132.128 91.7216 134.496 90.1427 135.323 89.9862C136.132 89.7785 136.959 89.7211 137.779 89.8155C138.372 89.972 137.758 90.4177 137.691 91.5651C137.577 93.4618 135.089 95.202 134.379 96.1503C133.669 97.0986 129.171 98.8341 129.171 98.8341L128.699 95.8326Z" fill="white" stroke="#141F1F" stroke-linecap="round" stroke-linejoin="round"/>
<path d="M137.577 90.8918L133.349 92.7743" stroke="#141F1F" stroke-linecap="round" stroke-linejoin="round"/>
<path d="M137.378 92.6414L133.75 94.391" stroke="#141F1F" stroke-linecap="round" stroke-linejoin="round"/>
<path d="M134.961 95.6003L134.052 96.0034" stroke="#141F1F" stroke-linecap="round" stroke-linejoin="round"/>
<path d="M132.128 91.7217L130.73 91.8355" stroke="#141F1F" stroke-linecap="round" stroke-linejoin="round"/>
<path d="M143.239 80.8113C143.239 80.8113 145.521 88.4927 146.079 90.1333C146.742 92.1011 149.76 100.257 149.76 100.257L155.439 83.8222L158.517 85.5577C158.517 85.5577 153.664 105.947 152.599 108.953C151.535 111.959 151.772 114.325 150.115 114.169C148.457 114.012 143.37 107.056 143.37 107.056L143.239 80.8113Z" fill="white" stroke="#141F1F" stroke-linecap="round" stroke-linejoin="round"/>
<path d="M149.76 100.257L147.449 105.823" stroke="#141F1F" stroke-linecap="round" stroke-linejoin="round"/>
<path d="M148.858 102.329L146.945 104.344" stroke="#141F1F" stroke-linecap="round" stroke-linejoin="round"/>
<path d="M154.701 86.4536L157.722 88.4688" stroke="#141F1F" stroke-linecap="round" stroke-linejoin="round"/>
<path d="M155.439 83.822C155.439 83.822 155.322 79.3933 155.677 78.445C156.032 77.4967 157.331 74.9694 157.452 74.3388C157.573 73.7081 158.162 72.5986 158.279 73.7034C158.334 74.5505 158.294 75.4038 158.162 76.2354C158.162 76.2354 159.699 74.3388 159.816 73.7034C159.933 73.068 159.816 70.8584 160.292 70.8584C160.767 70.8584 161.236 71.3326 161.712 73.2292C162.187 75.1259 161.712 78.1321 161.474 79.2369C161.236 80.3417 158.872 84.6091 158.872 84.6091L158.517 85.5575L155.439 83.822Z" fill="white" stroke="#141F1F" stroke-linecap="round" stroke-linejoin="round"/>
<path d="M161.751 74.4952C161.751 74.4952 161.548 73.4188 161.349 74.2297C161.151 75.0405 160.544 78.1273 160.544 78.1273C160.544 78.1273 157.42 80.9723 157.42 81.7641V82.556" stroke="#141F1F" stroke-linecap="round" stroke-linejoin="round"/>
<path d="M143.981 188.807L146.675 193.596C146.675 193.596 150.271 194.852 150.296 195.35C150.321 195.848 149.011 196.578 149.011 196.578L145.525 197.304C145.525 197.304 141.397 195.142 140.403 194.833C139.409 194.525 138.493 194.866 138.784 193.335C139.075 191.803 139.54 188.636 139.54 188.636L143.981 188.807Z" fill="white" stroke="#141F1F" stroke-linecap="round" stroke-linejoin="round"/>
<path d="M134.503 139.764C134.503 139.764 137.261 133.197 141.102 130.631C144.943 128.066 148.301 129.024 151.417 129.024C154.534 129.024 159.816 129.664 160.416 130.627C161.016 131.589 143.981 188.802 143.981 188.802L139.54 188.64C139.54 188.64 142.781 169.408 143.26 164.932C143.739 160.456 144.929 147.459 144.929 147.459C144.929 147.459 136.608 147.459 132.771 147.279" fill="#141F1F"/>
<path d="M134.503 139.764C134.503 139.764 137.261 133.197 141.102 130.631C144.943 128.066 148.301 129.024 151.417 129.024C154.534 129.024 159.816 129.664 160.416 130.627C161.016 131.589 143.981 188.802 143.981 188.802L139.54 188.64C139.54 188.64 142.781 169.408 143.26 164.932C143.739 160.456 144.929 147.459 144.929 147.459C144.929 147.459 136.608 147.459 132.771 147.279" stroke="#141F1F" stroke-linecap="round" stroke-linejoin="round"/>
<path d="M118.306 130.963C118.306 130.963 118.426 128.559 122.263 128.398C126.101 128.237 130.183 127.758 130.662 130.802C131.141 133.846 131.262 180.485 131.262 182.088C131.262 183.69 131.617 187.536 131.617 187.536L127.176 188.01C127.176 188.01 121.426 162.215 120.464 156.445C119.502 150.674 119.626 136.734 119.626 135.61" fill="#141F1F"/>
<path d="M118.306 130.963C118.306 130.963 118.426 128.559 122.263 128.398C126.101 128.237 130.183 127.758 130.662 130.802C131.141 133.846 131.262 180.485 131.262 182.088C131.262 183.69 131.617 187.536 131.617 187.536L127.176 188.01C127.176 188.01 121.426 162.215 120.464 156.445C119.502 150.674 119.626 136.734 119.626 135.61" stroke="#141F1F" stroke-linecap="round" stroke-linejoin="round"/>
<path d="M131.624 187.536C131.624 187.536 133.183 194.587 133.541 195.388C133.9 196.189 134.141 196.673 133.062 197.631C131.983 198.589 129.825 199.233 128.504 198.755C127.184 198.276 126.942 195.227 127.184 192.666C127.329 191.122 127.329 189.559 127.184 188.015L131.624 187.536Z" fill="white" stroke="#141F1F" stroke-linecap="round" stroke-linejoin="round"/>
<path d="M60.1899 149.413L54.6879 194.933" stroke="#141F1F" stroke-width="6" stroke-linecap="round" stroke-linejoin="round"/>
<path d="M78.6484 149.413L73.1464 194.933" stroke="#141F1F" stroke-width="6" stroke-linecap="round" stroke-linejoin="round"/>
<path d="M86.2803 149.413L91.7823 194.933" stroke="#141F1F" stroke-width="6" stroke-linecap="round" stroke-linejoin="round"/>
<path d="M105.449 149.413L110.951 194.933" stroke="#141F1F" stroke-width="6" stroke-linecap="round" stroke-linejoin="round"/>
<path d="M51.0884 99.7634L59.0113 147.815H84.8781L75.6737 99.7634H51.0884Z" fill="#808080" stroke="#141F1F" stroke-linecap="round" stroke-linejoin="round"/>
<path d="M107.93 147.678H59.0114V150.414H107.93V147.678Z" fill="#808080" stroke="#141F1F" stroke-linecap="round" stroke-linejoin="round"/>
<path d="M107.93 147.678H91.374V150.414H107.93V147.678Z" fill="#808080" stroke="#141F1F" stroke-linecap="round" stroke-linejoin="round"/>
<path d="M65.9865 78.2887L56.1644 85.4012L61.3719 128.076C61.3719 128.076 61.134 129.181 61.7268 129.655C62.3196 130.129 63.9738 130.29 63.9738 130.29H83.2629C83.9554 129.999 84.5711 129.449 85.0378 128.706C85.627 127.602 85.627 126.971 85.627 125.862C85.627 124.752 87.6397 84.7705 87.2847 83.9787C87.011 83.4095 86.6934 82.8803 86.337 82.3997L76.1635 77.0227L65.9865 78.2887Z" fill="white" stroke="#141F1F" stroke-linecap="round" stroke-linejoin="round"/>
<path d="M72.9901 87.9237L75.3045 90.0479L74.6585 119.977L78.9785 126.07L82.4572 119.019L76.8628 89.5643L78.4247 85.0787L73.984 81.7122L72.9901 87.9237Z" fill="#141F1F" stroke="#141F1F" stroke-linecap="round" stroke-linejoin="round"/>
<path d="M80.3025 53.3145L81.7224 59.0045L81.1332 61.2188L83.0252 65.4863L81.7224 66.5911C81.7224 66.5911 82.4324 72.4423 82.1981 72.9164C81.9638 73.3906 76.9907 73.8648 76.9907 73.8648L76.2807 83.348L68.3542 77.1839V67.8571C68.3542 67.8571 65.7487 54.737 66.3415 53.6322C66.9343 52.5274 70.9561 50.3131 75.8086 49.5212C80.6611 48.7294 81.3674 48.0987 81.6053 49.9954C81.8431 51.892 80.3025 53.3145 80.3025 53.3145Z" fill="white" stroke="#141F1F" stroke-linecap="round" stroke-linejoin="round"/>
<path d="M81.6053 49.9954C81.3674 48.0987 80.6575 48.7341 75.8086 49.5212C70.9597 50.3083 66.9343 52.5274 66.3415 53.6322C65.7487 54.737 68.3542 67.8571 68.3542 67.8571V70.3891C68.667 70.4557 68.9857 70.4557 69.2984 70.3891C70.6012 70.0762 72.376 67.7054 72.376 67.7054C72.376 67.7054 70.6012 69.1279 69.8912 67.7054C69.1967 66.3112 68.9416 64.6075 69.1813 62.9637C69.4191 61.38 71.194 61.8542 71.194 62.646C71.194 63.4379 71.9039 65.0169 72.4932 64.6992C73.0824 64.3815 73.2031 60.7494 73.2031 60.7494C73.2031 60.7494 75.6879 58.535 75.8086 57.4302C75.9293 56.3254 75.0987 54.5853 75.0987 54.5853L80.3025 53.3193C80.3025 53.3193 81.8431 51.892 81.6053 49.9954Z" fill="#141F1F" stroke="#141F1F" stroke-linecap="round" stroke-linejoin="round"/>
<path d="M80.4231 59.6397C80.4231 59.6397 79.0032 59.0044 78.1726 60.4269" stroke="#141F1F" stroke-linecap="round" stroke-linejoin="round"/>
<path d="M80.5403 61.7736C80.5403 62.3378 80.3805 62.7978 80.1853 62.7978C79.9901 62.7978 79.8303 62.3236 79.8303 61.7736C79.8303 61.2235 79.9901 60.7446 80.1853 60.7446C80.3805 60.7446 80.5403 61.2188 80.5403 61.7736Z" fill="#141F1F"/>
<path d="M81.2502 68.1747C81.2502 68.1747 79.7132 68.6489 79.1204 67.8571" stroke="#141F1F" stroke-linecap="round" stroke-linejoin="round"/>
<path d="M76.9907 73.8646H74.2681L76.5186 78.7627L76.9907 73.8646Z" fill="#141F1F" stroke="#141F1F" stroke-linecap="round" stroke-linejoin="round"/>
<path d="M68.3541 75.4436L65.3937 78.6063L72.6138 89.6685L76.2806 83.3479L68.3541 75.4436Z" fill="white" stroke="#141F1F" stroke-linecap="round" stroke-linejoin="round"/>
<path d="M76.2808 83.348L79.0034 88.0896L78.1728 78.1322L76.8736 76.0743L76.2808 83.348Z" fill="white" stroke="#141F1F" stroke-linecap="round" stroke-linejoin="round"/>
<path d="M87.2848 83.9785L96.9862 115.117L90.4795 118.592L86.337 108.791L87.2848 83.9785Z" fill="white" stroke="#141F1F" stroke-linecap="round" stroke-linejoin="round"/>
<path d="M80.0681 114.956C80.0681 114.956 88.5874 113.22 91.0722 112.585C93.557 111.95 95.5662 112.428 96.7518 114.169C97.9374 115.909 97.696 119.223 97.341 120.015C96.986 120.807 93.7913 121.12 91.6615 121.12C89.5316 121.12 83.025 118.91 81.7223 118.436L80.4231 117.962L80.0681 114.956Z" fill="white" stroke="#141F1F" stroke-linecap="round" stroke-linejoin="round"/>
<path d="M87.9947 119.541C87.9947 119.541 91.1895 120.171 91.4273 120.646C91.6651 121.12 94.2671 125.074 94.622 125.548C94.977 126.023 95.2113 130.447 95.2113 130.447C95.2113 130.447 94.3842 131.238 94.1464 130.764C93.9086 130.29 91.1895 125.705 91.1895 125.705C91.1895 125.705 87.7569 124.126 87.5226 123.178L87.2848 122.229L87.9947 119.541Z" fill="white" stroke="#141F1F" stroke-linecap="round" stroke-linejoin="round"/>
<path d="M56.1644 85.4011C56.1644 85.4011 62.0818 121.438 62.5539 121.594C63.026 121.75 87.2847 122.229 87.2847 122.229L87.9947 119.541L67.8785 112.746L66.5793 88.7203" fill="white"/>
<path d="M56.1644 85.4011C56.1644 85.4011 62.0818 121.438 62.5539 121.594C63.026 121.75 87.2847 122.229 87.2847 122.229L87.9947 119.541L67.8785 112.746L66.5793 88.7203" stroke="#141F1F" stroke-linecap="round" stroke-linejoin="round"/>
<path d="M97.4618 133.069C97.4618 133.069 110.241 137.104 111.185 137.877C112.129 138.65 111.661 141.447 111.068 143.775C110.475 146.103 92.3715 187.526 92.3715 187.526L89.6524 186.578L97.9339 147.327H87.5226L97.4618 133.069Z" fill="#141F1F" stroke="#141F1F" stroke-linecap="round" stroke-linejoin="round"/>
<path d="M92.3715 187.526L94.5013 194.041C94.5013 194.041 97.4618 196.986 97.3411 197.455C97.2204 197.925 95.804 197.93 95.804 197.93L92.3715 196.829C92.3715 196.829 89.1767 192.794 88.3497 192.017C87.5226 191.239 86.5748 191.068 87.2847 189.845C88.0209 188.693 88.8118 187.605 89.6524 186.588L92.3715 187.526Z" fill="white" stroke="#141F1F" stroke-linecap="round" stroke-linejoin="round"/>
<path d="M61.727 129.655C61.727 129.655 61.1342 138.19 61.1342 140.361C61.1342 142.533 62.4369 145.947 64.8046 147.189C67.1722 148.432 94.7393 147.189 94.7393 147.189L105.626 191.87L108.821 190.314C108.821 190.314 104.796 141.604 104.796 140.527C104.796 139.451 104.441 135.563 103.259 134.785C102.077 134.007 83.2631 130.285 83.2631 130.285L61.727 129.655Z" fill="#141F1F" stroke="#141F1F" stroke-linecap="round" stroke-linejoin="round"/>
<path d="M108.821 190.314C108.821 190.314 114.973 191.4 115.683 191.263C116.392 191.125 118.639 190.485 117.93 192.036C117.22 193.586 112.605 195.293 110.713 196.379C108.821 197.465 106.925 199.172 106.336 197.934C105.747 196.697 105.626 191.884 105.626 191.884L108.821 190.314Z" fill="white" stroke="#141F1F" stroke-linecap="round" stroke-linejoin="round"/>
<path d="M75.5708 112.585H73.3238L70.9562 116.222C70.9562 116.222 70.2462 118.436 70.9562 118.436C71.6661 118.436 73.3238 118.91 74.3887 118.436C75.4536 117.962 78.4105 116.378 78.4105 116.378C78.2614 115.447 77.914 114.594 77.4101 113.921C76.9063 113.248 76.2675 112.784 75.5708 112.585Z" fill="white" stroke="#141F1F" stroke-linecap="round" stroke-linejoin="round"/>
<path d="M76.7527 113.22L80.0681 114.956L80.5402 116.852L78.4104 116.378L76.7527 113.22Z" fill="white" stroke="#141F1F" stroke-linecap="round" stroke-linejoin="round"/>
<path d="M70.8247 117.17C70.8247 117.17 73.952 113.514 74.7613 113.059" stroke="#141F1F" stroke-linecap="round" stroke-linejoin="round"/>
<path d="M71.3962 118.204C71.3962 118.204 75.5494 113.524 76.4084 113.524" stroke="#141F1F" stroke-linecap="round" stroke-linejoin="round"/>
<path d="M72.9724 118.683C72.9724 118.683 75.979 114.956 77.3386 114.766" stroke="#141F1F" stroke-linecap="round" stroke-linejoin="round"/>
<path d="M230.572 122.661H50.4069V133.742H230.572V122.661Z" fill="white" stroke="#141F1F" stroke-linecap="round" stroke-linejoin="round"/>
<path d="M51.9757 196.445H49.5477L47.7977 122.661H53.7258L51.9757 196.445Z" fill="white" stroke="#141F1F" stroke-linecap="round" stroke-linejoin="round"/>
<path d="M230.956 196.445H228.528L226.778 122.661H232.706L230.956 196.445Z" fill="white" stroke="#141F1F" stroke-linecap="round" stroke-linejoin="round"/>
<path d="M232.578 126.264H47.8901V123.656H232.706L232.578 126.264Z" fill="#141F1F" stroke="#141F1F" stroke-miterlimit="10"/>
<path d="M234.481 121.438H45.1035V124.045H234.481V121.438Z" fill="white" stroke="#141F1F" stroke-linecap="round" stroke-linejoin="round"/>
<path d="M155.851 112.357C155.851 112.357 156.706 111.883 157.193 112.277C157.679 112.67 157.803 117.241 157.193 118.626C157.05 119.004 156.844 119.334 156.591 119.588C156.337 119.843 156.042 120.015 155.73 120.091L155.609 117.891C155.609 117.891 156.156 118.298 156.461 116.753C156.767 115.207 156.706 113.908 156.522 113.822C156.313 113.811 156.105 113.866 155.915 113.984L155.851 112.357Z" fill="#426868" stroke="#141F1F" stroke-linecap="round" stroke-linejoin="round"/>
<path d="M155.986 110.138H149.107V121.731H155.986V110.138Z" fill="#426868" stroke="#141F1F" stroke-linecap="round" stroke-linejoin="round"/>
<path d="M55.7243 112.357C55.7243 112.357 54.8723 111.883 54.386 112.277C53.8997 112.67 53.7755 117.241 54.386 118.626C54.5282 119.004 54.7343 119.334 54.9881 119.588C55.2419 119.843 55.5364 120.015 55.8485 120.091L55.9692 117.891C55.9692 117.891 55.4225 118.298 55.1173 116.753C54.812 115.207 54.8723 113.908 55.0569 113.822C55.266 113.811 55.474 113.866 55.6639 113.984L55.7243 112.357Z" fill="#426868" stroke="#141F1F" stroke-linecap="round" stroke-linejoin="round"/>
<path d="M55.5929 121.736H62.4723V110.143H55.5929V121.736Z" fill="#426868" stroke="#141F1F" stroke-linecap="round" stroke-linejoin="round"/>
<path d="M219.011 112.357C219.011 112.357 218.159 111.883 217.673 112.277C217.186 112.67 217.062 117.241 217.673 118.626C217.815 119.004 218.021 119.334 218.275 119.588C218.529 119.843 218.823 120.015 219.135 120.091L219.256 117.891C219.256 117.891 218.709 118.298 218.404 116.753C218.099 115.207 218.159 113.908 218.344 113.822C218.553 113.811 218.761 113.866 218.951 113.984L219.011 112.357Z" fill="#426868" stroke="#141F1F" stroke-linecap="round" stroke-linejoin="round"/>
<path d="M218.88 121.736H225.759V110.143H218.88V121.736Z" fill="#426868" stroke="#141F1F" stroke-linecap="round" stroke-linejoin="round"/>
<path d="M190.308 100.242H162.23V121.594H190.308V100.242Z" fill="#141F1F" stroke="#141F1F" stroke-miterlimit="10"/>
<path d="M108.484 14.5895H80.9201C80.4689 14.5882 80.022 14.706 79.6049 14.9359C79.1878 15.1658 78.8088 15.5034 78.4896 15.9294C78.1704 16.3553 77.9172 16.8613 77.7447 17.4181C77.5721 17.975 77.4835 18.5719 77.484 19.1746V36.7187C77.4835 37.3206 77.5719 37.9167 77.744 38.473C77.9161 39.0293 78.1686 39.5348 78.4871 39.9606C78.8056 40.3864 79.1837 40.7242 79.6 40.9547C80.0162 41.1852 80.4624 41.3038 80.913 41.3038H84.2782L82.6772 50.0901L88.4881 41.3038H108.477C108.927 41.3038 109.374 41.1852 109.79 40.9548C110.207 40.7244 110.585 40.3867 110.904 39.9609C111.222 39.5351 111.475 39.0296 111.648 38.4733C111.82 37.9171 111.909 37.3208 111.909 36.7187V19.1746C111.909 17.9602 111.548 16.7954 110.906 15.9358C110.264 15.0762 109.393 14.592 108.484 14.5895Z" fill="#141F1F"/>
<path d="M100.202 22.1571H106.783" stroke="white" stroke-linecap="round" stroke-linejoin="round"/>
<path d="M89.4821 22.1571H98.6368" stroke="white" stroke-linecap="round" stroke-linejoin="round"/>
<path d="M82.553 22.1571H87.7782" stroke="white" stroke-linecap="round" stroke-linejoin="round"/>
<path d="M102.563 26.0121H106.79" stroke="white" stroke-linecap="round" stroke-linejoin="round"/>
<path d="M94.4517 26.0121H101.647" stroke="white" stroke-linecap="round" stroke-linejoin="round"/>
<path d="M82.553 26.0121H93.8127" stroke="white" stroke-linecap="round" stroke-linejoin="round"/>
<path d="M98.8995 29.8671H106.791" stroke="white" stroke-linecap="round" stroke-linejoin="round"/>
<path d="M88.5663 29.8671H97.5932" stroke="white" stroke-linecap="round" stroke-linejoin="round"/>
<path d="M82.553 29.8671H87.5226" stroke="white" stroke-linecap="round" stroke-linejoin="round"/>
<path d="M104.526 33.7174H106.79" stroke="white" stroke-linecap="round" stroke-linejoin="round"/>
<path d="M97.1992 33.7174H103.216" stroke="white" stroke-linecap="round" stroke-linejoin="round"/>
<path d="M93.9298 33.7174H96.2975" stroke="white" stroke-linecap="round" stroke-linejoin="round"/>
<path d="M83.9871 33.7174H92.2295" stroke="white" stroke-linecap="round" stroke-linejoin="round"/>
<path d="M82.553 33.7174H83.3339" stroke="white" stroke-linecap="round" stroke-linejoin="round"/>
<path d="M146.586 18.5441H120.79C120.34 18.5441 119.893 18.6627 119.477 18.8931C119.06 19.1235 118.682 19.4613 118.363 19.887C118.045 20.3128 117.792 20.8183 117.619 21.3746C117.447 21.9309 117.358 22.5271 117.358 23.1292V39.3077C117.358 39.9098 117.447 40.506 117.619 41.0623C117.792 41.6186 118.045 42.1241 118.363 42.5499C118.682 42.9756 119.06 43.3134 119.477 43.5438C119.893 43.7742 120.34 43.8928 120.79 43.8928H139.057V51.1333L142.309 43.8928H146.59C147.041 43.8928 147.487 43.7742 147.903 43.5438C148.32 43.3134 148.698 42.9756 149.017 42.5499C149.336 42.1241 149.589 41.6186 149.761 41.0623C149.934 40.506 150.022 39.9098 150.022 39.3077V23.1103C150.019 21.8967 149.655 20.7346 149.011 19.8786C148.367 19.0227 147.495 18.5428 146.586 18.5441Z" fill="white" stroke="#141F1F" stroke-linecap="round" stroke-linejoin="round"/>
<path d="M139.451 25.6566H146.033" stroke="#141F1F" stroke-linecap="round" stroke-linejoin="round"/>
<path d="M128.724 25.6566H137.879" stroke="#141F1F" stroke-linecap="round" stroke-linejoin="round"/>
<path d="M121.795 25.6566H127.024" stroke="#141F1F" stroke-linecap="round" stroke-linejoin="round"/>
<path d="M141.805 29.5067H146.033" stroke="#141F1F" stroke-linecap="round" stroke-linejoin="round"/>
<path d="M133.694 29.5067H140.889" stroke="#141F1F" stroke-linecap="round" stroke-linejoin="round"/>
<path d="M121.795 29.5067H133.041" stroke="#141F1F" stroke-linecap="round" stroke-linejoin="round"/>
<path d="M138.142 33.3617H146.033" stroke="#141F1F" stroke-linecap="round" stroke-linejoin="round"/>
<path d="M127.808 33.3617H136.835" stroke="#141F1F" stroke-linecap="round" stroke-linejoin="round"/>
<path d="M121.795 33.3617H126.765" stroke="#141F1F" stroke-linecap="round" stroke-linejoin="round"/>
<path d="M143.768 37.2166H146.033" stroke="#141F1F" stroke-linecap="round" stroke-linejoin="round"/>
<path d="M136.441 37.2166H142.476" stroke="#141F1F" stroke-linecap="round" stroke-linejoin="round"/>
<path d="M133.172 37.2166H135.525" stroke="#141F1F" stroke-linecap="round" stroke-linejoin="round"/>
<path d="M123.229 37.2166H131.472" stroke="#141F1F" stroke-linecap="round" stroke-linejoin="round"/>
<path d="M121.795 37.2166H122.565" stroke="#141F1F" stroke-linecap="round" stroke-linejoin="round"/>
<path d="M182.179 9.27417H156.376C155.466 9.27417 154.593 9.75725 153.949 10.6171C153.306 11.477 152.944 12.6433 152.944 13.8593V30.0378C152.944 30.6399 153.033 31.2361 153.205 31.7924C153.378 32.3487 153.63 32.8542 153.949 33.28C154.268 33.7057 154.646 34.0435 155.063 34.2739C155.479 34.5043 155.926 34.6229 156.376 34.6229H175.275L179.648 44.4334L178.938 34.6229H182.172C182.623 34.6229 183.069 34.5043 183.486 34.2739C183.902 34.0435 184.281 33.7057 184.599 33.28C184.918 32.8542 185.171 32.3487 185.343 31.7924C185.516 31.2361 185.605 30.6399 185.605 30.0378V13.8593C185.605 12.6449 185.244 11.4801 184.602 10.6205C183.96 9.76087 183.088 9.27668 182.179 9.27417Z" fill="#426868" stroke="#141F1F" stroke-linecap="round" stroke-linejoin="round"/>
<path d="M174.768 15.8651H181.352" stroke="#141F1F" stroke-linecap="round" stroke-linejoin="round"/>
<path d="M164.04 15.8651H173.198" stroke="#141F1F" stroke-linecap="round" stroke-linejoin="round"/>
<path d="M157.111 15.8651H162.34" stroke="#141F1F" stroke-linecap="round" stroke-linejoin="round"/>
<path d="M177.121 19.7201H181.352" stroke="#141F1F" stroke-linecap="round" stroke-linejoin="round"/>
<path d="M169.013 19.7201H176.205" stroke="#141F1F" stroke-linecap="round" stroke-linejoin="round"/>
<path d="M157.111 19.7201H168.357" stroke="#141F1F" stroke-linecap="round" stroke-linejoin="round"/>
<path d="M173.461 23.575H181.352" stroke="#141F1F" stroke-linecap="round" stroke-linejoin="round"/>
<path d="M163.125 23.575H172.151" stroke="#141F1F" stroke-linecap="round" stroke-linejoin="round"/>
<path d="M157.111 23.575H162.081" stroke="#141F1F" stroke-linecap="round" stroke-linejoin="round"/>
<path d="M179.084 27.4299H181.352" stroke="#141F1F" stroke-linecap="round" stroke-linejoin="round"/>
<path d="M171.761 27.4299H177.778" stroke="#141F1F" stroke-linecap="round" stroke-linejoin="round"/>
<path d="M168.488 27.4299H170.841" stroke="#141F1F" stroke-linecap="round" stroke-linejoin="round"/>
<path d="M158.549 27.4299H166.788" stroke="#141F1F" stroke-linecap="round" stroke-linejoin="round"/>
<path d="M157.111 27.4299H157.892" stroke="#141F1F" stroke-linecap="round" stroke-linejoin="round"/>
</svg>
