<svg width="250" height="187" viewBox="0 0 250 187" fill="none" xmlns="http://www.w3.org/2000/svg">
<path d="M250 163.7H0V163.825H250V163.7Z" fill="#EBEBEB"/>
<path d="M86.61 166.89H75.02V167.015H86.61V166.89Z" fill="#EBEBEB"/>
<path d="M229.385 169.57H201.05V169.695H229.385V169.57Z" fill="#EBEBEB"/>
<path d="M49.6951 169.57H21.3601V169.695H49.6951V169.57Z" fill="#EBEBEB"/>
<path d="M118.5 141.4H21.955C21.1987 141.399 20.4738 141.097 19.9394 140.562C19.4051 140.027 19.105 139.301 19.105 138.545V2.83C19.1116 2.07801 19.4146 1.35899 19.9482 0.829109C20.4818 0.299229 21.203 0.00128819 21.955 0H118.5C119.257 0 119.983 0.300794 120.519 0.83621C121.054 1.37163 121.355 2.09781 121.355 2.855V138.545C121.355 139.302 121.054 140.028 120.519 140.564C119.983 141.099 119.257 141.4 118.5 141.4ZM21.955 0.1C21.2318 0.101325 20.5387 0.389533 20.0278 0.901363C19.5169 1.41319 19.23 2.10682 19.23 2.83V138.545C19.23 139.268 19.5169 139.962 20.0278 140.474C20.5387 140.985 21.2318 141.274 21.955 141.275H118.5C119.223 141.272 119.916 140.984 120.427 140.472C120.939 139.961 121.227 139.268 121.23 138.545V2.83C121.227 2.10677 120.939 1.41391 120.427 0.90251C119.916 0.391105 119.223 0.102635 118.5 0.1H21.955Z" fill="#EBEBEB"/>
<path d="M226.655 141.4H130.105C129.349 141.397 128.624 141.096 128.089 140.561C127.554 140.026 127.253 139.301 127.25 138.545V2.83C127.258 2.07756 127.562 1.35854 128.096 0.828796C128.631 0.299054 129.353 0.00127414 130.105 0H226.655C227.406 0.00260225 228.126 0.301125 228.659 0.830864C229.191 1.3606 229.493 2.07888 229.5 2.83V138.545C229.501 138.919 229.428 139.29 229.285 139.636C229.142 139.982 228.933 140.297 228.669 140.562C228.405 140.827 228.091 141.037 227.745 141.181C227.4 141.325 227.029 141.399 226.655 141.4ZM130.105 0.1C129.382 0.102635 128.689 0.391105 128.178 0.90251C127.666 1.41391 127.378 2.10677 127.375 2.83V138.545C127.378 139.268 127.666 139.961 128.178 140.472C128.689 140.984 129.382 141.272 130.105 141.275H226.655C227.378 141.272 228.071 140.984 228.582 140.472C229.094 139.961 229.382 139.268 229.385 138.545V2.83C229.382 2.10677 229.094 1.41391 228.582 0.90251C228.071 0.391105 227.378 0.102635 226.655 0.1H130.105Z" fill="#EBEBEB"/>
<path d="M49.3499 37.705H90.9999C91.419 37.7043 91.8342 37.7864 92.2215 37.9464C92.6088 38.1065 92.9607 38.3415 93.2571 38.6378C93.5534 38.9342 93.7884 39.2861 93.9485 39.6734C94.1085 40.0607 94.1906 40.4759 94.1899 40.895V163.585H46.1899V40.89C46.1912 40.05 46.5238 39.2444 47.1154 38.6481C47.707 38.0517 48.51 37.7129 49.3499 37.705Z" fill="#141F1F"/>
<path d="M56.3399 45.14H50.1499V58.92H56.3399V45.14Z" fill="#EBEBEB"/>
<path d="M90.19 45.14H84V58.92H90.19V45.14Z" fill="#EBEBEB"/>
<path d="M67.6199 45.14H61.4299V58.92H67.6199V45.14Z" fill="#EBEBEB"/>
<path d="M78.9051 45.14H72.7151V58.92H78.9051V45.14Z" fill="#EBEBEB"/>
<path d="M56.3399 66.895H50.1499V80.675H56.3399V66.895Z" fill="#EBEBEB"/>
<path d="M90.19 66.895H84V80.675H90.19V66.895Z" fill="#EBEBEB"/>
<path d="M67.6199 66.895H61.4299V80.675H67.6199V66.895Z" fill="#EBEBEB"/>
<path d="M78.9051 66.895H72.7151V80.675H78.9051V66.895Z" fill="#EBEBEB"/>
<path d="M56.3399 88.645H50.1499V102.425H56.3399V88.645Z" fill="#EBEBEB"/>
<path d="M90.19 88.645H84V102.425H90.19V88.645Z" fill="#EBEBEB"/>
<path d="M67.6199 88.645H61.4299V102.425H67.6199V88.645Z" fill="#EBEBEB"/>
<path d="M78.9051 88.645H72.7151V102.425H78.9051V88.645Z" fill="#EBEBEB"/>
<path d="M56.3399 110.4H50.1499V124.18H56.3399V110.4Z" fill="#EBEBEB"/>
<path d="M90.19 110.4H84V124.18H90.19V110.4Z" fill="#EBEBEB"/>
<path d="M67.6199 110.4H61.4299V124.18H67.6199V110.4Z" fill="#EBEBEB"/>
<path d="M78.9051 110.4H72.7151V124.18H78.9051V110.4Z" fill="#EBEBEB"/>
<path d="M56.3399 132.15H50.1499V145.93H56.3399V132.15Z" fill="#EBEBEB"/>
<path d="M90.19 132.15H84V145.93H90.19V132.15Z" fill="#EBEBEB"/>
<path d="M67.6199 132.15H61.4299V145.93H67.6199V132.15Z" fill="#EBEBEB"/>
<path d="M78.9051 132.15H72.7151V145.93H78.9051V132.15Z" fill="#EBEBEB"/>
<path d="M196.97 49.14H226.79C227.478 49.1413 228.137 49.4152 228.624 49.9015C229.11 50.3879 229.384 51.0472 229.385 51.735V163.585H194.385V51.74C194.385 51.053 194.657 50.394 195.141 49.9068C195.626 49.4197 196.283 49.144 196.97 49.14Z" fill="#F5F5F5"/>
<path d="M204.46 55.905H198.835V68.43H204.46V55.905Z" fill="#EBEBEB"/>
<path d="M214.72 55.905H209.095V68.43H214.72V55.905Z" fill="#EBEBEB"/>
<path d="M224.975 55.905H219.35V68.43H224.975V55.905Z" fill="#EBEBEB"/>
<path d="M204.46 75.6801H198.835V88.2051H204.46V75.6801Z" fill="#EBEBEB"/>
<path d="M214.72 75.6801H209.095V88.2051H214.72V75.6801Z" fill="#EBEBEB"/>
<path d="M224.975 75.6801H219.35V88.2051H224.975V75.6801Z" fill="#EBEBEB"/>
<path d="M204.46 95.46H198.835V107.985H204.46V95.46Z" fill="#EBEBEB"/>
<path d="M214.72 95.46H209.095V107.985H214.72V95.46Z" fill="#EBEBEB"/>
<path d="M224.975 95.46H219.35V107.985H224.975V95.46Z" fill="#EBEBEB"/>
<path d="M204.46 115.23H198.835V127.755H204.46V115.23Z" fill="#EBEBEB"/>
<path d="M214.72 115.23H209.095V127.755H214.72V115.23Z" fill="#EBEBEB"/>
<path d="M224.975 115.23H219.35V127.755H224.975V115.23Z" fill="#EBEBEB"/>
<path d="M204.46 135.01H198.835V147.535H204.46V135.01Z" fill="#EBEBEB"/>
<path d="M214.72 135.01H209.095V147.535H214.72V135.01Z" fill="#EBEBEB"/>
<path d="M224.975 135.01H219.35V147.535H224.975V135.01Z" fill="#EBEBEB"/>
<path d="M128.655 17.13H177.095C178.079 17.13 179.023 17.5209 179.718 18.2166C180.414 18.9124 180.805 19.8561 180.805 20.84V163.585H124.95V20.84C124.95 19.8569 125.34 18.914 126.035 18.2184C126.729 17.5228 127.672 17.1313 128.655 17.13Z" fill="#141F1F"/>
<path d="M136.785 25.785H129.585V41.815H136.785V25.785Z" fill="#EBEBEB"/>
<path d="M176.165 25.785H168.965V41.815H176.165V25.785Z" fill="#EBEBEB"/>
<path d="M149.91 25.785H142.71V41.815H149.91V25.785Z" fill="#EBEBEB"/>
<path d="M163.04 25.785H155.84V41.815H163.04V25.785Z" fill="#EBEBEB"/>
<path d="M136.785 51.095H129.585V67.125H136.785V51.095Z" fill="#EBEBEB"/>
<path d="M176.165 51.095H168.965V67.125H176.165V51.095Z" fill="#EBEBEB"/>
<path d="M149.91 51.095H142.71V67.125H149.91V51.095Z" fill="#EBEBEB"/>
<path d="M163.04 51.095H155.84V67.125H163.04V51.095Z" fill="#EBEBEB"/>
<path d="M136.785 76.405H129.585V92.435H136.785V76.405Z" fill="#EBEBEB"/>
<path d="M176.165 76.405H168.965V92.435H176.165V76.405Z" fill="#EBEBEB"/>
<path d="M149.91 76.405H142.71V92.435H149.91V76.405Z" fill="#EBEBEB"/>
<path d="M163.04 76.405H155.84V92.435H163.04V76.405Z" fill="#EBEBEB"/>
<path d="M136.785 101.71H129.585V117.74H136.785V101.71Z" fill="#EBEBEB"/>
<path d="M176.165 101.71H168.965V117.74H176.165V101.71Z" fill="#EBEBEB"/>
<path d="M149.91 101.71H142.71V117.74H149.91V101.71Z" fill="#EBEBEB"/>
<path d="M163.04 101.71H155.84V117.74H163.04V101.71Z" fill="#EBEBEB"/>
<path d="M136.785 127.015H129.585V143.045H136.785V127.015Z" fill="#EBEBEB"/>
<path d="M176.165 127.015H168.965V143.045H176.165V127.015Z" fill="#EBEBEB"/>
<path d="M149.91 127.015H142.71V143.045H149.91V127.015Z" fill="#EBEBEB"/>
<path d="M163.04 127.015H155.84V143.045H163.04V127.015Z" fill="#EBEBEB"/>
<path d="M124.945 69.585H94.175V163.59H124.945V69.585Z" fill="#E6E6E6"/>
<path d="M194.405 79.65H180.81V163.585H194.405V79.65Z" fill="#E6E6E6"/>
<path d="M46.16 163.585H19.23V124.34L46.16 115.23V163.585Z" fill="#E6E6E6"/>
<path d="M125 186.28C178.541 186.28 221.945 182.723 221.945 178.335C221.945 173.947 178.541 170.39 125 170.39C71.4587 170.39 28.0549 173.947 28.0549 178.335C28.0549 182.723 71.4587 186.28 125 186.28Z" fill="#F5F5F5"/>
<path d="M148.84 146.96H140.34C135.915 146.96 132.34 153.375 132.34 161.29C132.34 169.205 135.925 175.615 140.34 175.615H148.84C153.265 175.615 156.84 169.2 156.84 161.29C156.84 153.38 153.265 146.96 148.84 146.96Z" fill="#141F1F"/>
<path opacity="0.05" d="M158.84 146.96H150.34C145.915 146.96 142.34 153.375 142.34 161.29C142.34 169.205 145.925 175.615 150.34 175.615H158.84C163.265 175.615 166.84 169.2 166.84 161.29C166.84 153.38 163.265 146.96 158.84 146.96Z" fill="white"/>
<path d="M217.695 150.03L68.8499 149.925V54.85H217.695V150.03Z" fill="#426868"/>
<path opacity="0.3" d="M217.695 54.85H116.815V150.025H217.695V54.85Z" fill="#141F1F"/>
<path opacity="0.2" d="M116.815 54.85H68.8499V151.905H116.815V54.85Z" fill="white"/>
<path opacity="0.1" d="M69.21 59.27H217.695" stroke="white" stroke-width="2" stroke-linecap="round" stroke-linejoin="round"/>
<path opacity="0.1" d="M69.21 63.385H217.695" stroke="white" stroke-width="2" stroke-linecap="round" stroke-linejoin="round"/>
<path opacity="0.1" d="M69.21 67.495H217.695" stroke="white" stroke-width="2" stroke-linecap="round" stroke-linejoin="round"/>
<path opacity="0.1" d="M69.21 71.605H217.695" stroke="white" stroke-width="2" stroke-linecap="round" stroke-linejoin="round"/>
<path opacity="0.1" d="M69.21 75.72H217.695" stroke="white" stroke-width="2" stroke-linecap="round" stroke-linejoin="round"/>
<path opacity="0.1" d="M69.21 79.83H217.695" stroke="white" stroke-width="2" stroke-linecap="round" stroke-linejoin="round"/>
<path opacity="0.1" d="M69.21 83.9399H217.695" stroke="white" stroke-width="2" stroke-linecap="round" stroke-linejoin="round"/>
<path opacity="0.1" d="M69.21 88.0499H217.695" stroke="white" stroke-width="2" stroke-linecap="round" stroke-linejoin="round"/>
<path opacity="0.1" d="M69.21 92.165H217.695" stroke="white" stroke-width="2" stroke-linecap="round" stroke-linejoin="round"/>
<path opacity="0.1" d="M69.21 96.275H217.695" stroke="white" stroke-width="2" stroke-linecap="round" stroke-linejoin="round"/>
<path opacity="0.1" d="M69.21 100.385H217.695" stroke="white" stroke-width="2" stroke-linecap="round" stroke-linejoin="round"/>
<path opacity="0.1" d="M69.21 104.5H217.695" stroke="white" stroke-width="2" stroke-linecap="round" stroke-linejoin="round"/>
<path opacity="0.1" d="M69.21 108.61H217.695" stroke="white" stroke-width="2" stroke-linecap="round" stroke-linejoin="round"/>
<path opacity="0.1" d="M69.21 112.72H217.695" stroke="white" stroke-width="2" stroke-linecap="round" stroke-linejoin="round"/>
<path opacity="0.1" d="M69.21 116.83H217.695" stroke="white" stroke-width="2" stroke-linecap="round" stroke-linejoin="round"/>
<path opacity="0.1" d="M69.21 120.945H217.695" stroke="white" stroke-width="2" stroke-linecap="round" stroke-linejoin="round"/>
<path opacity="0.1" d="M69.21 125.055H217.695" stroke="white" stroke-width="2" stroke-linecap="round" stroke-linejoin="round"/>
<path opacity="0.1" d="M69.21 129.165H217.695" stroke="white" stroke-width="2" stroke-linecap="round" stroke-linejoin="round"/>
<path opacity="0.1" d="M69.21 133.28H217.695" stroke="white" stroke-width="2" stroke-linecap="round" stroke-linejoin="round"/>
<path opacity="0.1" d="M69.21 137.39H217.695" stroke="white" stroke-width="2" stroke-linecap="round" stroke-linejoin="round"/>
<path opacity="0.1" d="M69.21 141.5H217.695" stroke="white" stroke-width="2" stroke-linecap="round" stroke-linejoin="round"/>
<path opacity="0.1" d="M69.21 145.615H217.695" stroke="white" stroke-width="2" stroke-linecap="round" stroke-linejoin="round"/>
<path d="M41.535 148.83H33.67C29.57 148.83 26.25 154.77 26.25 162.1C26.25 169.43 29.57 175.365 33.67 175.365H41.535C45.635 175.365 48.955 169.425 48.955 162.1C48.955 154.775 45.635 148.83 41.535 148.83Z" fill="#141F1F"/>
<path opacity="0.05" d="M51.54 148.83H43.67C39.57 148.83 36.25 154.77 36.25 162.1C36.25 169.43 39.57 175.365 43.67 175.365H51.54C55.635 175.365 58.96 169.425 58.96 162.1C58.96 154.775 55.635 148.83 51.54 148.83Z" fill="white"/>
<path d="M37.1599 122.915H33.4399C32.7099 122.94 32.1099 122.16 32.0949 121.17C32.0849 121.067 32.0849 120.963 32.0949 120.86L33.0949 109.625C33.2199 108.47 33.9349 107.625 34.7949 107.57H38.5499C39.2749 107.57 39.8749 108.335 39.8899 109.325C39.8899 109.425 39.8899 109.525 39.8899 109.625L38.8899 120.86C38.7399 122 37.9999 122.885 37.1599 122.915Z" fill="#141F1F"/>
<path d="M40.8798 85.805L33.7048 124.5L111.82 155.1L111.275 78.84L94.0948 78.34H47.0348C44.2048 78.315 41.7098 81.355 40.8798 85.805Z" fill="#426868"/>
<path d="M99 92.03C96.085 91.9 93.47 94.29 92.615 97.855L86.705 122.615H75.33L74.71 155.28H112.125" fill="#426868"/>
<path d="M41.9999 120.535C40.8549 120.535 39.9299 119.065 39.9299 117.255C39.9294 116.939 39.9596 116.625 40.0199 116.315L44.3149 93.5949C44.6749 91.7099 45.7749 90.4199 47.0199 90.4249H88.1099C88.5549 90.4249 88.9199 90.9949 88.9199 91.7049C88.9209 91.8308 88.9092 91.9564 88.8849 92.0799C87.9849 96.7599 85.0599 112.265 83.9399 118.195C83.6799 119.585 82.8699 120.535 81.9399 120.535H41.9999Z" fill="#141F1F"/>
<path d="M79.8098 130.605C79.809 131.003 79.7806 131.401 79.7248 131.795L79.5098 133.26L79.3848 134.125L78.4648 140.445L76.9648 150.72L76.5498 153.575H18.4048V150.72L18.4448 140.445L18.4998 134.3V131.8C17.9998 128.5 19.5948 125.3 22.0248 124.635C22.3099 124.557 22.6043 124.519 22.8998 124.52H75.3298C77.8048 124.5 79.8098 127.24 79.8098 130.605Z" fill="#426868"/>
<path d="M109.365 93.5V117.855C109.365 119.33 108.61 120.53 107.675 120.535H93.4649C92.5299 120.535 91.7749 119.335 91.7749 117.855C91.7746 117.614 91.7947 117.373 91.8349 117.135L96.2149 92.235C96.4249 91.04 97.1249 90.235 97.9049 90.28L107.735 90.82C108.645 90.875 109.365 92.06 109.365 93.5Z" fill="#141F1F"/>
<path opacity="0.1" d="M65.97 90.425H58.12L49.105 120.535H56.96L65.97 90.425Z" fill="white"/>
<path opacity="0.1" d="M72.0798 90.425H68.3298L59.3198 120.535H63.0648L72.0798 90.425Z" fill="white"/>
<path d="M94.8748 140.445V150.72H18.4148L18.4548 140.445H94.8748Z" fill="black"/>
<path d="M84.2249 140.445H77.1549L64.4399 147.915V150.72H94.8749V140.445H84.2249Z" fill="white"/>
<path d="M31.5948 147.915V150.72H18.4148L18.4548 140.445H18.8848L31.5948 147.915Z" fill="white"/>
<path opacity="0.3" d="M111.855 155.28L111.275 78.84L100.775 78.34C98.1548 78.21 95.1298 81.255 94.3648 84.785L86.7548 124.5H83.7898C80.4598 124.5 78.1798 126.925 78.1848 129.5L78.2298 155.29H111.855" fill="#141F1F"/>
<path d="M79.6148 133.62C79.6137 133.715 79.5927 133.808 79.553 133.894C79.5134 133.981 79.4561 134.057 79.3848 134.12C79.2625 134.233 79.1016 134.296 78.9348 134.295H18.4998V132.935H78.9498C79.0648 132.935 79.178 132.965 79.2785 133.021C79.3791 133.077 79.4638 133.157 79.5248 133.255C79.588 133.366 79.6191 133.492 79.6148 133.62Z" fill="white"/>
<path d="M29.16 132.94V134.3H18.48L18.485 132.94H29.16Z" fill="#141F1F"/>
<path d="M79.6149 133.62C79.6138 133.715 79.5928 133.808 79.5532 133.894C79.5135 133.981 79.4562 134.057 79.3849 134.12C79.2627 134.233 79.1017 134.296 78.9349 134.295H64.2749V132.935H78.9349C79.05 132.935 79.1631 132.965 79.2637 133.021C79.3643 133.077 79.449 133.157 79.5099 133.255C79.5784 133.364 79.6147 133.491 79.6149 133.62Z" fill="#141F1F"/>
<path d="M220.365 152.5V152.77C220.365 153.433 220.102 154.069 219.633 154.538C219.164 155.007 218.528 155.27 217.865 155.27H19.2649C18.6019 155.27 17.966 155.007 17.4971 154.538C17.0283 154.069 16.7649 153.433 16.7649 152.77V152.5C16.7649 151.837 17.0283 151.201 17.4971 150.732C17.966 150.263 18.6019 150 19.2649 150H217.865C218.528 150 219.164 150.263 219.633 150.732C220.102 151.201 220.365 151.837 220.365 152.5Z" fill="#141F1F"/>
<path d="M63.3048 152.055H33.7048V153.5H63.3048V152.055Z" fill="black"/>
<path d="M25.8299 152.775C25.8299 152.938 25.7817 153.097 25.6912 153.233C25.6008 153.368 25.4722 153.474 25.3218 153.537C25.1713 153.599 25.0057 153.616 24.8458 153.584C24.6859 153.553 24.5389 153.475 24.4233 153.36C24.3078 153.245 24.2288 153.099 24.1964 152.939C24.164 152.779 24.1796 152.614 24.2413 152.463C24.303 152.312 24.4079 152.183 24.543 152.091C24.678 152 24.837 151.951 24.9999 151.95C25.1087 151.949 25.2165 151.97 25.3172 152.011C25.4179 152.052 25.5094 152.113 25.5865 152.19C25.6637 152.267 25.7249 152.358 25.7667 152.458C25.8084 152.559 25.8299 152.666 25.8299 152.775Z" fill="white"/>
<path d="M70.3749 152.775C70.3749 152.938 70.3265 153.098 70.2358 153.233C70.1452 153.369 70.0163 153.475 69.8656 153.537C69.7148 153.6 69.5489 153.616 69.3889 153.584C69.2289 153.552 69.0819 153.474 68.9665 153.358C68.8511 153.243 68.7725 153.096 68.7407 152.936C68.7089 152.776 68.7252 152.61 68.7877 152.459C68.8501 152.308 68.9558 152.18 69.0915 152.089C69.2272 151.998 69.3867 151.95 69.5499 151.95C69.6582 151.95 69.7655 151.971 69.8656 152.013C69.9657 152.054 70.0566 152.115 70.1332 152.192C70.2098 152.268 70.2706 152.359 70.3121 152.459C70.3535 152.559 70.3749 152.667 70.3749 152.775Z" fill="white"/>
<path d="M94.2949 160.965C94.2949 153.01 97.8999 146.56 102.35 146.56H93.8049C89.3599 146.56 85.7549 153.01 85.7549 160.965C85.7549 168.92 89.3599 175.365 93.8049 175.365H102.35C97.8999 175.38 94.2949 168.935 94.2949 160.965Z" fill="black"/>
<path opacity="0.7" d="M94.2949 160.965C94.2949 153.01 97.8999 146.56 102.35 146.56H93.8049C89.3599 146.56 85.7549 153.01 85.7549 160.965C85.7549 168.92 89.3599 175.365 93.8049 175.365H102.35C97.8999 175.38 94.2949 168.935 94.2949 160.965Z" fill="#141F1F"/>
<path d="M102.35 175.385C106.799 175.385 110.405 168.936 110.405 160.98C110.405 153.024 106.799 146.575 102.35 146.575C97.9013 146.575 94.2949 153.024 94.2949 160.98C94.2949 168.936 97.9013 175.385 102.35 175.385Z" fill="#141F1F"/>
<path d="M102.995 172.21C106.148 172.21 108.705 167.182 108.705 160.98C108.705 154.778 106.148 149.75 102.995 149.75C99.8414 149.75 97.2849 154.778 97.2849 160.98C97.2849 167.182 99.8414 172.21 102.995 172.21Z" fill="white"/>
<path d="M102.475 170.7C105.493 170.7 107.94 166.348 107.94 160.98C107.94 155.612 105.493 151.26 102.475 151.26C99.4565 151.26 97.0098 155.612 97.0098 160.98C97.0098 166.348 99.4565 170.7 102.475 170.7Z" fill="#141F1F"/>
<path d="M101.275 168.075C103.479 168.075 105.265 164.898 105.265 160.98C105.265 157.062 103.479 153.885 101.275 153.885C99.0713 153.885 97.2849 157.062 97.2849 160.98C97.2849 164.898 99.0713 168.075 101.275 168.075Z" fill="black"/>
<path opacity="0.5" d="M220.365 152.5V152.77C220.365 153.433 220.102 154.069 219.633 154.538C219.164 155.007 218.528 155.27 217.865 155.27H116.815V150H217.865C218.528 150 219.164 150.263 219.633 150.732C220.102 151.201 220.365 151.837 220.365 152.5Z" fill="black"/>
<path d="M188.96 160.965C188.96 153.01 192.565 146.56 197.01 146.56H188.47C184.02 146.56 180.415 153.01 180.415 160.965C180.415 168.92 184.02 175.365 188.47 175.365H197C192.565 175.38 188.96 168.935 188.96 160.965Z" fill="black"/>
<path opacity="0.7" d="M188.96 160.965C188.96 153.01 192.565 146.56 197.01 146.56H188.47C184.02 146.56 180.415 153.01 180.415 160.965C180.415 168.92 184.02 175.365 188.47 175.365H197C192.565 175.38 188.96 168.935 188.96 160.965Z" fill="#141F1F"/>
<path d="M197.01 175.385C201.458 175.385 205.065 168.936 205.065 160.98C205.065 153.024 201.458 146.575 197.01 146.575C192.561 146.575 188.955 153.024 188.955 160.98C188.955 168.936 192.561 175.385 197.01 175.385Z" fill="#141F1F"/>
<path d="M197.66 172.21C200.814 172.21 203.37 167.182 203.37 160.98C203.37 154.778 200.814 149.75 197.66 149.75C194.506 149.75 191.95 154.778 191.95 160.98C191.95 167.182 194.506 172.21 197.66 172.21Z" fill="white"/>
<path d="M197.135 170.7C200.153 170.7 202.6 166.348 202.6 160.98C202.6 155.612 200.153 151.26 197.135 151.26C194.117 151.26 191.67 155.612 191.67 160.98C191.67 166.348 194.117 170.7 197.135 170.7Z" fill="#141F1F"/>
<path d="M195.935 168.075C198.138 168.075 199.925 164.898 199.925 160.98C199.925 157.062 198.138 153.885 195.935 153.885C193.731 153.885 191.945 157.062 191.945 160.98C191.945 164.898 193.731 168.075 195.935 168.075Z" fill="black"/>
<path d="M164.43 90.5C164.33 92.425 164.155 94.285 163.87 96.18C163.624 98.1373 163.195 100.067 162.59 101.945C162.399 102.492 162.16 103.021 161.875 103.525C161.677 103.865 161.435 104.178 161.155 104.455L161.015 104.585L160.935 104.645L160.895 104.68L160.725 104.795L160.39 105.03C159.541 105.575 158.648 106.048 157.72 106.445C155.959 107.219 154.13 107.825 152.255 108.255L151.605 106.475C153.195 105.595 154.825 104.695 156.31 103.76C157.036 103.315 157.734 102.825 158.4 102.295L158.62 102.11L158.73 102.015C158.73 102.015 158.775 101.94 158.83 101.82C158.976 101.497 159.096 101.162 159.19 100.82C159.416 99.9976 159.595 99.1629 159.725 98.32C159.88 97.45 160.005 96.565 160.11 95.665C160.315 93.88 160.49 92.05 160.61 90.27L164.43 90.5Z" fill="#CE7A63"/>
<path d="M152.79 106.5L149.72 105.55L150.295 109.265C150.295 109.265 152.295 109.015 153.295 107.895L152.79 106.5Z" fill="#CE7A63"/>
<path d="M146 107.94L146.17 108.44C146.266 108.716 146.449 108.954 146.691 109.117C146.934 109.28 147.223 109.36 147.515 109.345L149.08 109.275L148.5 105.55L146.78 106.225C146.454 106.355 146.19 106.606 146.045 106.926C145.899 107.245 145.883 107.609 146 107.94Z" fill="#CE7A63"/>
<path d="M168.06 86.895C168.06 88.055 167.5 90.345 167.02 92.065C166.665 93.3 166.37 94.24 166.37 94.24L165.665 94.065L159.855 92.595C159.765 89.595 159.88 86.33 162.855 84.37C164.715 83.14 168.045 84.83 168.06 86.895Z" fill="#141F1F"/>
<path opacity="0.3" d="M168.055 87.095C167.675 86.695 166.815 86.625 164.94 87.22C162.255 88.07 161.505 91.01 161.47 93.005L165.665 94.065L166.025 94.16L166.37 94.24C166.37 94.24 166.515 93.77 166.725 93.055C166.81 92.765 166.915 92.425 167.015 92.055C167.515 90.4376 167.864 88.7771 168.055 87.095Z" fill="black"/>
<path d="M156.135 180.235L152.59 178.995L154.82 171.315L158.36 172.56L156.135 180.235Z" fill="#CE7A63"/>
<path d="M203.5 171.135L200.615 173.285L194.71 167.3L197.595 165.15L203.5 171.135Z" fill="#CE7A63"/>
<path d="M199.435 172.41L202.55 169.835C202.603 169.789 202.67 169.764 202.74 169.764C202.81 169.764 202.877 169.789 202.93 169.835L205.32 172.005C205.374 172.058 205.416 172.122 205.445 172.192C205.474 172.262 205.489 172.337 205.489 172.412C205.489 172.488 205.474 172.563 205.445 172.633C205.416 172.703 205.374 172.767 205.32 172.82L205.27 172.865C204.17 173.745 203.59 174.115 202.22 175.245C201.38 175.94 199.615 177.605 198.45 178.565C197.285 179.525 196.275 178.43 196.675 177.925C198.46 175.665 198.875 174.175 199.085 172.955C199.135 172.738 199.259 172.546 199.435 172.41Z" fill="#141F1F"/>
<path d="M152.35 177.885L156.29 179.53C156.36 179.561 156.419 179.613 156.457 179.68C156.495 179.747 156.51 179.824 156.5 179.9L156.055 183.375C156.038 183.514 155.966 183.641 155.855 183.727C155.745 183.813 155.604 183.852 155.465 183.835C155.413 183.83 155.363 183.816 155.315 183.795C153.92 183.23 153.265 182.95 151.535 182.225L146.225 180C144.785 179.395 145.095 177.815 145.725 177.93C148.64 178.46 150.52 178.285 151.67 177.85C151.78 177.811 151.897 177.794 152.014 177.8C152.13 177.806 152.245 177.835 152.35 177.885Z" fill="#141F1F"/>
<path opacity="0.2" d="M154.82 171.32L153.675 175.275L157.125 176.835L158.365 172.56L154.82 171.32Z" fill="black"/>
<path opacity="0.2" d="M197.6 165.15L194.71 167.3L197.755 170.385L200.64 168.235L197.6 165.15Z" fill="black"/>
<path d="M178.96 105.665L164.36 105.875C162.36 94.57 161.86 89.175 161.86 86.58C161.858 85.9328 162.081 85.305 162.492 84.8048C162.902 84.3046 163.475 83.9634 164.11 83.84C165 83.665 166.11 83.465 167.225 83.31C167.605 83.26 167.99 83.21 168.37 83.17C170.575 82.9809 172.791 82.9492 175 83.075C175.33 83.075 175.655 83.105 176 83.125C177.5 83.22 178.87 83.41 179.845 83.56C180.196 83.6165 180.51 83.8099 180.718 84.0978C180.926 84.3856 181.011 84.7443 180.955 85.095C180.958 85.12 180.958 85.1451 180.955 85.17C180.525 87.17 180.175 88.945 179.895 90.525C179.45 93.025 179.17 95.065 179.005 96.845C178.755 99.7791 178.74 102.729 178.96 105.665Z" fill="#141F1F"/>
<path opacity="0.1" d="M179 96.86C178.265 94.655 178.305 90.08 179.095 88.6L179.9 90.535C179.445 93.05 179.165 95.08 179 96.86Z" fill="black"/>
<path d="M164.36 105.875C164.36 105.875 161.86 127.13 159.605 140.375C157.82 150.745 153.31 172.33 153.31 172.33L159.165 174.405C159.165 174.405 165.87 151.905 167.045 142.295C171.77 128.44 175.17 105.77 175.17 105.77L164.36 105.875Z" fill="#ECF2F1"/>
<path d="M152.36 173.78L159.135 176.165L160.04 173.99L152.69 171.18L152.36 173.78Z" fill="#141F1F"/>
<path opacity="0.1" d="M171.76 112.19L169.57 116.385C168.77 119.545 168.96 127.235 169.975 132.095C171.795 124.77 173.25 117.06 174.155 111.885L171.76 112.19Z" fill="black"/>
<path d="M167.53 105.875C167.53 105.875 170.145 129.665 175.03 142.875C177.48 149.5 195.655 169.14 195.655 169.14L199.755 165.86C199.755 165.86 188.23 146.045 183.19 140.86C181.135 129.36 183.72 112.12 178.945 105.67L167.53 105.875Z" fill="#ECF2F1"/>
<path d="M196 170.545L200.81 166.605L199.51 164.47L194.245 169.055L196 170.545Z" fill="#141F1F"/>
<path d="M179.19 104.81L179.865 106.105C179.915 106.205 179.8 106.315 179.63 106.315L164.31 106.535C164.175 106.535 164.07 106.47 164.055 106.39L163.91 105.085C163.91 104.995 164.015 104.915 164.155 104.915L178.945 104.7C178.992 104.697 179.038 104.706 179.081 104.725C179.124 104.744 179.161 104.773 179.19 104.81Z" fill="#141F1F"/>
<path d="M177.205 106.5H177.61C177.685 106.5 177.745 106.455 177.74 106.41L177.525 104.71C177.525 104.66 177.455 104.625 177.375 104.625H177C176.92 104.625 176.86 104.67 176.87 104.715L177.08 106.41C177.055 106.45 177.13 106.5 177.205 106.5Z" fill="#ECF2F1"/>
<path d="M165.41 106.66H165.81C165.89 106.66 165.945 106.615 165.94 106.565L165.735 104.87C165.735 104.82 165.655 104.78 165.575 104.78H165.175C165.095 104.78 165.035 104.825 165.04 104.875L165.25 106.57C165.26 106.62 165.33 106.66 165.41 106.66Z" fill="#ECF2F1"/>
<path d="M171.31 106.565H171.71C171.79 106.565 171.85 106.52 171.845 106.47L171.635 104.775C171.635 104.72 171.56 104.68 171.48 104.685H171.08C171 104.685 170.945 104.73 170.945 104.78L171.155 106.475C171.15 106.535 171.23 106.565 171.31 106.565Z" fill="#ECF2F1"/>
<path d="M144.82 90.9101L166.49 87.9351L169.49 109.21L148.21 112.13L144.82 90.9101Z" fill="#ECF2F1"/>
<path opacity="0.8" d="M144.82 90.9101L166.49 87.9351L169.49 109.21L148.21 112.13L144.82 90.9101Z" fill="white"/>
<path opacity="0.2" d="M166.788 86.9077L161.001 87.726L164.105 109.674L169.891 108.856L166.788 86.9077Z" fill="#ECF2F1"/>
<path d="M172.635 106.53L169.635 105.355L169.93 109.105C169.93 109.105 171.93 109.005 173.005 107.96L172.635 106.53Z" fill="#CE7A63"/>
<path d="M182.07 87.86C182.875 90.11 183.57 92.36 184.16 94.66C184.46 95.815 184.74 96.975 184.965 98.16C185.075 98.76 185.17 99.37 185.24 100.005C185.32 100.668 185.349 101.337 185.325 102.005C185.311 102.44 185.244 102.871 185.125 103.29C184.961 103.805 184.686 104.277 184.32 104.675C183.785 105.248 183.15 105.717 182.445 106.06C181.291 106.62 180.076 107.044 178.825 107.325C176.486 107.868 174.1 108.187 171.7 108.28L171.465 106.395C172.56 106.135 173.68 105.845 174.77 105.54C175.86 105.235 176.945 104.895 177.985 104.515C178.978 104.174 179.936 103.737 180.845 103.21C181.175 103.017 181.47 102.768 181.715 102.475C181.78 102.375 181.78 102.35 181.77 102.35C181.78 102.202 181.78 102.053 181.77 101.905C181.751 101.42 181.699 100.938 181.615 100.46C181.535 99.96 181.425 99.4 181.305 98.85C181.055 97.78 180.775 96.685 180.46 95.59C179.835 93.42 179.13 91.215 178.425 89.09L182.07 87.86Z" fill="#CE7A63"/>
<path d="M166.87 107.205L167.105 108.075C167.176 108.354 167.335 108.603 167.56 108.784C167.785 108.964 168.062 109.066 168.35 109.075L169.96 109.12L169.665 105.375L168.025 105.56C167.851 105.577 167.682 105.629 167.528 105.712C167.374 105.795 167.238 105.907 167.127 106.043C167.017 106.179 166.934 106.335 166.884 106.502C166.834 106.67 166.817 106.846 166.835 107.02C166.843 107.082 166.854 107.144 166.87 107.205Z" fill="#CE7A63"/>
<path d="M180.365 83.6699C182.045 84.3549 183.42 89.8749 183.42 89.8749L178.78 93.4999C178.78 93.4999 175.49 88.3499 176.16 86.1149C176.73 84.2249 178.225 82.8049 180.365 83.6699Z" fill="#141F1F"/>
<path d="M198.3 173.97H198.24C198.156 173.964 198.075 173.937 198.004 173.892C197.933 173.847 197.875 173.784 197.835 173.71C197.805 173.667 197.787 173.618 197.783 173.566C197.778 173.514 197.788 173.462 197.81 173.415C198.015 173.015 199.31 172.855 199.45 172.84C199.467 172.837 199.484 172.839 199.499 172.846C199.514 172.853 199.527 172.865 199.535 172.88C199.544 172.894 199.55 172.911 199.55 172.928C199.55 172.944 199.544 172.961 199.535 172.975C199.265 173.34 198.74 173.94 198.3 173.97ZM199.275 173.035C198.775 173.11 198.07 173.275 197.97 173.495C197.958 173.514 197.952 173.535 197.952 173.558C197.952 173.58 197.958 173.601 197.97 173.62C197.994 173.671 198.031 173.715 198.077 173.747C198.124 173.779 198.179 173.797 198.235 173.8C198.485 173.8 198.885 173.53 199.285 173.035H199.275Z" fill="#141F1F"/>
<path d="M199.39 173C198.955 173 198.085 172.845 197.89 172.5C197.859 172.44 197.849 172.372 197.862 172.305C197.875 172.239 197.909 172.179 197.96 172.135C198.004 172.087 198.058 172.048 198.119 172.023C198.179 171.998 198.245 171.987 198.31 171.99C198.835 171.99 199.5 172.795 199.52 172.84C199.528 172.852 199.532 172.866 199.532 172.88C199.532 172.894 199.528 172.908 199.52 172.92C199.516 172.935 199.508 172.948 199.496 172.958C199.485 172.967 199.47 172.973 199.455 172.975L199.39 173ZM198.28 172.17C198.21 172.177 198.144 172.209 198.095 172.26C198.02 172.34 198.035 172.39 198.055 172.43C198.17 172.65 198.855 172.83 199.295 172.83C199.044 172.515 198.705 172.284 198.32 172.165L198.28 172.17Z" fill="#141F1F"/>
<path d="M150.335 177.805C150.057 177.714 149.814 177.54 149.64 177.305C149.6 177.236 149.576 177.159 149.569 177.079C149.563 177 149.573 176.92 149.6 176.845C149.614 176.802 149.638 176.763 149.672 176.732C149.705 176.701 149.746 176.68 149.79 176.67C150.25 176.585 151.335 177.75 151.545 177.985C151.555 178 151.56 178.017 151.56 178.035C151.56 178.053 151.555 178.07 151.545 178.085C151.537 178.101 151.523 178.113 151.507 178.12C151.491 178.128 151.472 178.129 151.455 178.125C151.072 178.056 150.697 177.949 150.335 177.805ZM149.99 176.865C149.939 176.84 149.882 176.83 149.825 176.835C149.825 176.835 149.78 176.835 149.76 176.895C149.74 176.947 149.732 177.003 149.737 177.058C149.743 177.114 149.761 177.168 149.79 177.215C149.945 177.485 150.48 177.74 151.24 177.905C150.883 177.496 150.465 177.145 150 176.865H149.99Z" fill="#141F1F"/>
<path d="M151.45 178.115H151.42C151.055 177.75 150.46 176.655 150.665 176.305C150.71 176.23 150.805 176.15 151.02 176.21C151.825 176.445 151.58 178.005 151.565 178.07C151.565 178.086 151.559 178.102 151.548 178.114C151.537 178.126 151.521 178.134 151.505 178.135C151.495 178.137 151.484 178.136 151.475 178.133C151.465 178.129 151.456 178.123 151.45 178.115ZM151.05 176.37H151C150.92 176.345 150.86 176.37 150.84 176.37C150.72 176.575 151.105 177.4 151.455 177.84C151.45 177.455 151.5 176.57 151.05 176.37Z" fill="#141F1F"/>
<path d="M166.54 68.115C166.54 68.115 164.54 71.46 166.04 72.925C167.54 74.39 167.98 69.195 167.98 69.195L166.54 68.115Z" fill="#141F1F"/>
<path d="M175.83 75.965C175.83 75.965 178.33 72.055 177.29 68.17C176.25 64.285 171.39 66.795 169.34 65.73C168.589 65.2735 167.789 64.9028 166.955 64.625C166.821 64.5853 166.68 64.5768 166.542 64.6002C166.404 64.6236 166.273 64.6783 166.16 64.76C165.66 65.2 166.53 66.025 166.8 66.335C166.634 66.1429 166.442 65.9746 166.23 65.835C165.965 65.66 165.61 65.645 165.73 66.09C165.936 66.5681 166.304 66.9579 166.77 67.19C166.575 67.08 165.42 66.495 165.34 66.86C165.33 66.9485 165.353 67.0376 165.405 67.11C166.155 68.51 167.665 70.27 169.405 70.305C171.5 70.335 173.5 76.23 175.83 75.965Z" fill="#141F1F"/>
<path d="M176.715 76.1399C176.585 77.4599 174.625 77.4749 174.625 77.4749C174.304 78.2304 173.771 78.8766 173.09 79.3349C173.03 80.1321 173.057 80.9335 173.17 81.7249C173.5 82.9699 173.92 83.3999 174.445 83.6799L174.025 84.0949C173.221 84.5588 172.313 84.8116 171.385 84.8299L170.835 84.5099L170.115 84.6249C168.115 83.9699 168.615 82.6249 168.615 82.6249C168.98 81.7116 168.999 80.6966 168.67 79.7699C166.75 79.1699 165.965 77.4999 165.695 74.6899C165.425 71.8799 167.005 69.1899 167.005 69.1899C169.175 71.2849 173.475 69.9399 173.475 69.9399C173.29 73.8799 175.13 75.3349 175.13 75.3349C175.735 74.7949 176.84 74.8249 176.715 76.1399Z" fill="#CE7A63"/>
<path d="M169.735 76.5C170.251 76.3556 170.697 76.0287 170.99 75.58C171.014 75.5446 171.023 75.5014 171.015 75.4595C171.008 75.4175 170.984 75.3801 170.95 75.355C170.933 75.3424 170.914 75.3333 170.893 75.3283C170.873 75.3232 170.851 75.3223 170.83 75.3255C170.809 75.3288 170.789 75.3361 170.771 75.3472C170.753 75.3583 170.737 75.3728 170.725 75.39C170.556 75.6933 170.295 75.9346 169.979 76.0786C169.663 76.2225 169.31 76.2616 168.97 76.19C168.93 76.1775 168.886 76.1815 168.848 76.2012C168.811 76.2209 168.783 76.2546 168.77 76.295C168.757 76.3361 168.761 76.3806 168.781 76.4189C168.8 76.4572 168.834 76.4863 168.875 76.5C169.157 76.5737 169.453 76.5737 169.735 76.5Z" fill="#141F1F"/>
<path d="M170.305 73.06C170.305 73.315 170.205 73.535 170.035 73.56C169.865 73.585 169.71 73.375 169.69 73.12C169.67 72.865 169.795 72.62 169.965 72.62C170.135 72.62 170.285 72.8 170.305 73.06Z" fill="#141F1F"/>
<path d="M167.245 72.93C167.245 73.185 167.145 73.405 166.975 73.43C166.805 73.455 166.655 73.245 166.635 72.99C166.615 72.735 166.735 72.515 166.905 72.49C167.075 72.465 167.23 72.67 167.245 72.93Z" fill="#141F1F"/>
<path d="M168.055 75.4051L168.02 73.5551L167.1 75.1151C167.227 75.232 167.379 75.3189 167.544 75.3691C167.71 75.4193 167.884 75.4316 168.055 75.4051Z" fill="#BA4D3C"/>
<path d="M171.7 71.5001C171.722 71.4941 171.742 71.4839 171.76 71.4701C171.785 71.4557 171.806 71.4366 171.823 71.4138C171.839 71.391 171.852 71.365 171.858 71.3375C171.865 71.3099 171.866 71.2813 171.861 71.2534C171.856 71.2255 171.846 71.1988 171.83 71.1751C171.664 70.896 171.422 70.6692 171.133 70.5207C170.844 70.3722 170.519 70.3079 170.195 70.3351C170.167 70.3381 170.14 70.3468 170.115 70.3607C170.09 70.3745 170.069 70.3932 170.051 70.4156C170.034 70.438 170.022 70.4637 170.015 70.4911C170.007 70.5185 170.006 70.5471 170.01 70.575C170.018 70.6313 170.047 70.6824 170.092 70.717C170.137 70.7517 170.194 70.7672 170.25 70.7601C170.492 70.745 170.733 70.7967 170.947 70.9096C171.162 71.0225 171.341 71.1922 171.465 71.4001C171.488 71.4397 171.524 71.4707 171.566 71.4887C171.608 71.5067 171.655 71.5107 171.7 71.5001Z" fill="#141F1F"/>
<path d="M166.275 71.295C166.331 71.2803 166.38 71.2445 166.41 71.195C166.5 71.0594 166.627 70.9527 166.776 70.8879C166.925 70.8231 167.09 70.803 167.25 70.83C167.278 70.8358 167.306 70.8359 167.334 70.8304C167.361 70.825 167.388 70.814 167.411 70.7981C167.434 70.7822 167.454 70.7618 167.47 70.7381C167.485 70.7144 167.495 70.6878 167.5 70.66C167.51 70.6043 167.498 70.5469 167.466 70.5001C167.435 70.4533 167.386 70.4209 167.33 70.41C167.083 70.3641 166.827 70.394 166.597 70.4957C166.367 70.5974 166.173 70.7662 166.04 70.98C166.012 71.0293 166.004 71.0876 166.018 71.1425C166.032 71.1975 166.067 71.245 166.115 71.275C166.164 71.3012 166.221 71.3083 166.275 71.295Z" fill="#141F1F"/>
<path d="M175.26 83.855L174.185 84.905L172.27 86.785L171.55 85.64L170.835 84.51L173.335 81.53L175.155 83.73L175.26 83.855Z" fill="white"/>
<path d="M170.835 84.51L170.28 85.435L169.465 86.785L167.595 83.41L168.79 82.005L170.835 84.51Z" fill="white"/>
</svg>
