<svg width="252" height="244" viewBox="0 0 252 244" fill="none" xmlns="http://www.w3.org/2000/svg">
<path d="M60.0426 24.3431H8.61768V93.4011H60.0426V24.3431Z" stroke="#141F1F" stroke-linecap="round" stroke-linejoin="round"/>
<path d="M55.1163 30.9536H13.5388V86.7855H55.1163V30.9536Z" stroke="#141F1F" stroke-linecap="round" stroke-linejoin="round"/>
<path d="M102.003 65.6688H66.5061V113.337H102.003V65.6688Z" stroke="#141F1F" stroke-linecap="round" stroke-linejoin="round"/>
<path d="M98.6034 70.2332H69.9058V108.773H98.6034V70.2332Z" stroke="#141F1F" stroke-linecap="round" stroke-linejoin="round"/>
<path d="M211.275 13.6667H213.226C221.853 13.6667 230.127 17.0937 236.227 23.1938C242.327 29.2939 245.754 37.5674 245.754 46.1942V167.637H178.747V46.1942C178.747 37.5674 182.174 29.2939 188.274 23.1938C194.374 17.0937 202.648 13.6667 211.275 13.6667V13.6667Z" stroke="#141F1F" stroke-linecap="round" stroke-linejoin="round"/>
<path d="M186.312 167.275V48.2665C186.312 41.3887 189.044 34.7926 193.908 29.9293C198.771 25.0659 205.367 22.3337 212.245 22.3337V22.3337C215.65 22.3337 219.022 23.0045 222.168 24.3079C225.314 25.6112 228.173 27.5214 230.58 29.9296C232.988 32.3378 234.898 35.1966 236.2 38.3429C237.503 41.4892 238.173 44.8612 238.173 48.2665V167.275" stroke="#141F1F" stroke-linecap="round" stroke-linejoin="round"/>
<path d="M212.245 13.6667V167.454" stroke="#141F1F" stroke-linecap="round" stroke-linejoin="round"/>
<path d="M179.109 43.293H245.287" stroke="#141F1F" stroke-linecap="round" stroke-linejoin="round"/>
<path d="M219.008 59.0059L217.623 60.0551" stroke="#141F1F" stroke-linecap="round" stroke-linejoin="round"/>
<path d="M236.373 45.806L221.783 56.8969" stroke="#141F1F" stroke-linecap="round" stroke-linejoin="round"/>
<path d="M229.999 54.431L222.124 60.4329" stroke="#141F1F" stroke-linecap="round" stroke-linejoin="round"/>
<path d="M204.711 112.298L191.748 123.054" stroke="#141F1F" stroke-linecap="round" stroke-linejoin="round"/>
<path d="M209.375 108.432L207.119 110.3" stroke="#141F1F" stroke-linecap="round" stroke-linejoin="round"/>
<path d="M197.749 114.428L189.124 121.181" stroke="#141F1F" stroke-linecap="round" stroke-linejoin="round"/>
<path d="M220.854 141.542L219.123 142.927" stroke="#141F1F" stroke-linecap="round" stroke-linejoin="round"/>
<path d="M234.122 130.928L223.609 139.338" stroke="#141F1F" stroke-linecap="round" stroke-linejoin="round"/>
<path d="M228.121 139.553L223.247 143.304" stroke="#141F1F" stroke-linecap="round" stroke-linejoin="round"/>
<path d="M179.109 64.1788H245.287" stroke="#141F1F" stroke-linecap="round" stroke-linejoin="round"/>
<path d="M179.109 85.0698H245.287" stroke="#141F1F" stroke-linecap="round" stroke-linejoin="round"/>
<path d="M179.109 105.961H245.287" stroke="#141F1F" stroke-linecap="round" stroke-linejoin="round"/>
<path d="M179.109 126.847H245.287" stroke="#141F1F" stroke-linecap="round" stroke-linejoin="round"/>
<path d="M179.109 147.738H245.287" stroke="#141F1F" stroke-linecap="round" stroke-linejoin="round"/>
<path d="M187.96 24.1228L193.962 29.5895" stroke="#141F1F" stroke-linecap="round" stroke-linejoin="round"/>
<path d="M236.279 24.1228L230.277 29.5895" stroke="#141F1F" stroke-linecap="round" stroke-linejoin="round"/>
<path d="M1 127.618H178.752" stroke="#141F1F" stroke-linecap="round" stroke-linejoin="round"/>
<path d="M1 130.75H178.752" stroke="#141F1F" stroke-linecap="round" stroke-linejoin="round"/>
<path d="M1 226.759H250.475" stroke="#141F1F" stroke-linecap="round" stroke-linejoin="round"/>
<path d="M52.6873 130.635V226.643" stroke="#141F1F" stroke-linecap="round" stroke-linejoin="round"/>
<path d="M108.823 130.635V226.643" stroke="#141F1F" stroke-linecap="round" stroke-linejoin="round"/>
<path d="M164.959 130.635V226.643" stroke="#141F1F" stroke-linecap="round" stroke-linejoin="round"/>
<path d="M221.096 172.081V226.643" stroke="#141F1F" stroke-linecap="round" stroke-linejoin="round"/>
<path d="M247.852 167.711H177.026V172.081H247.852V167.711Z" stroke="#141F1F" stroke-linecap="round" stroke-linejoin="round"/>
<path d="M1 242.907H251" stroke="#141F1F" stroke-linecap="round" stroke-linejoin="round"/>
<path d="M36.224 115.63C36.224 115.63 36.224 112.697 32.1214 108.595C28.0187 104.492 25.406 102.147 25.406 102.147C25.406 102.147 23.3075 108.888 27.1373 112.991C29.9403 115.879 32.9798 118.527 36.224 120.908V115.63Z" fill="#426868"/>
<path d="M30.2696 133.935C30.2696 133.935 30.2696 131.002 26.1617 126.899C22.0537 122.797 19.4201 120.451 19.4201 120.451C19.4201 120.451 17.3687 127.193 21.2091 131.296C24.012 134.183 27.0515 136.831 30.2958 139.212L30.2696 133.935Z" fill="#426868"/>
<path d="M35.9671 120.625C35.9671 120.625 36.2767 117.708 40.7885 114.061C45.3004 110.415 48.1754 108.359 48.1754 108.359C48.1754 108.359 49.5028 115.278 45.2794 118.961C42.1867 121.536 38.884 123.847 35.4058 125.871L35.9671 120.625Z" fill="#426868"/>
<path d="M28.769 142.24C28.769 142.24 29.3828 139.375 34.2567 136.222C39.1306 133.069 42.1944 131.327 42.1944 131.327C42.1944 131.327 42.7873 138.352 38.2019 141.563C34.8599 143.807 31.3361 145.767 27.6672 147.423L28.769 142.24Z" fill="#426868"/>
<path d="M30.1279 165.812C30.1279 165.812 30.1279 162.879 34.2306 158.776C38.3333 154.674 40.9722 152.328 40.9722 152.328C40.9722 152.328 43.0183 159.07 39.2094 163.162C36.4085 166.053 33.3708 168.705 30.1279 171.089V165.812Z" fill="#426868"/>
<path d="M30.0543 171.556C30.0543 171.556 30.4688 168.655 26.9904 164.007C23.5121 159.358 21.2194 156.662 21.2194 156.662C21.2194 156.662 18.229 163.041 21.4188 167.648C23.7837 170.902 26.416 173.954 29.2883 176.771L30.0543 171.556Z" fill="#426868"/>
<path d="M26.0095 188.612C26.0095 188.612 26.0095 185.685 30.1122 181.582C34.2148 177.48 36.8538 175.134 36.8538 175.134C36.8538 175.134 38.9051 181.876 35.0962 185.979C32.2926 188.864 29.2532 191.51 26.0095 193.89V188.612Z" fill="#426868"/>
<path d="M28.7481 204.084C28.7481 204.084 28.0031 201.251 30.9359 196.214C33.8686 191.178 35.8255 188.266 35.8255 188.266C35.8255 188.266 39.4979 194.268 36.8748 199.205C34.8971 202.712 32.6279 206.046 30.0912 209.173L28.7481 204.084Z" fill="#426868"/>
<path d="M36.5967 114.896C36.3879 117.948 36.0113 120.987 35.4687 123.998C33.8476 132.392 29.7921 137.785 28.171 145.356C26.5499 152.926 31.2034 162.669 29.96 172.401C28.7166 182.133 24.9287 187.526 26.0095 194.016C27.0902 200.506 32.7511 218.065 32.7511 218.065" stroke="#141F1F" stroke-linecap="round" stroke-linejoin="round"/>
<path d="M35.925 122.571L40.3477 119.177" stroke="#141F1F" stroke-linecap="round" stroke-linejoin="round"/>
<path d="M36.1298 118.662L34.2778 115.373" stroke="#141F1F" stroke-linecap="round" stroke-linejoin="round"/>
<path d="M28.4175 144.989C28.4175 144.989 32.1214 142.213 35.925 139.438" stroke="#141F1F" stroke-linecap="round" stroke-linejoin="round"/>
<path d="M30.2695 139.212C30.2695 139.212 27.1846 133.163 23.6853 129.15" stroke="#141F1F" stroke-linecap="round" stroke-linejoin="round"/>
<path d="M30.2695 169.982C32.383 166.088 35.0496 162.52 38.1863 159.39" stroke="#141F1F" stroke-linecap="round" stroke-linejoin="round"/>
<path d="M29.5454 174.096C28.424 171.451 27.0832 168.904 25.5372 166.483C23.3757 163.298 23.0662 162.884 23.0662 162.884" stroke="#141F1F" stroke-linecap="round" stroke-linejoin="round"/>
<path d="M26.0095 194C26.9449 191.671 28.0587 189.417 29.341 187.259C30.6241 185.258 32.07 183.366 33.664 181.603" stroke="#141F1F" stroke-linecap="round" stroke-linejoin="round"/>
<path d="M30.086 209.178C30.086 209.178 29.6506 205.658 31.1773 202.683C32.704 199.708 34.4667 195.795 35.1907 194.252" stroke="#141F1F" stroke-linecap="round" stroke-linejoin="round"/>
<path d="M9.35229 154.768C9.35229 154.768 9.03226 152.926 11.1623 149.91C13.2923 146.893 14.6878 145.136 14.6878 145.136C14.6878 145.136 16.7077 149.139 14.7613 152.124C13.3195 154.24 11.7013 156.23 9.92415 158.073L9.35229 154.768Z" fill="#426868"/>
<path d="M15.0709 165.623C15.0709 165.623 14.7561 163.781 16.8809 160.765C19.0057 157.748 20.4117 155.99 20.4117 155.99C20.4117 155.99 22.4263 159.993 20.4851 162.979C19.0417 165.095 17.4237 167.087 15.648 168.933L15.0709 165.623Z" fill="#426868"/>
<path d="M10.0553 157.916C10.0553 157.916 9.53062 156.121 6.31984 154.327C3.10906 152.533 1.07347 151.552 1.07347 151.552C1.07347 151.552 0.989529 156.038 4.03767 157.884C6.25681 159.163 8.57846 160.254 10.9786 161.147L10.0553 157.916Z" fill="#426868"/>
<path d="M16.9123 170.664C16.9123 170.664 16.2145 168.933 12.8201 167.485C9.42568 166.037 7.30615 165.261 7.30615 165.261C7.30615 165.261 7.69963 169.731 10.9209 171.247C13.2619 172.284 15.6854 173.125 18.1661 173.76L16.9123 170.664Z" fill="#426868"/>
<path d="M18.6225 185.596C18.6225 185.596 18.3078 183.754 15.2859 181.629C12.2639 179.505 10.3595 178.314 10.3595 178.314C10.3595 178.314 9.80339 182.768 12.6417 184.924C14.7106 186.431 16.9026 187.761 19.1944 188.901L18.6225 185.596Z" fill="#426868"/>
<path d="M19.2888 189.195C19.2888 189.195 18.717 187.421 20.3906 184.127C22.0642 180.832 23.2079 178.88 23.2079 178.88C23.2079 178.88 25.7733 182.553 24.2571 185.79C23.1278 188.087 21.8081 190.286 20.3119 192.363L19.2888 189.195Z" fill="#426868"/>
<path d="M24.4408 204.021C24.4408 204.021 24.6559 202.169 27.5467 199.871C30.4374 197.573 32.2684 196.282 32.2684 196.282C32.2684 196.282 33.0764 200.695 30.3692 203.014C28.3858 204.634 26.2712 206.087 24.0474 207.358L24.4408 204.021Z" fill="#426868"/>
<path d="M23.68 199.446C23.68 199.446 23.36 197.61 20.3434 195.48C17.3267 193.35 15.438 192.169 15.438 192.169C15.438 192.169 14.8819 196.618 17.7149 198.78C19.7876 200.284 21.981 201.614 24.2729 202.756L23.68 199.446Z" fill="#426868"/>
<path d="M23.6382 209.435C23.6382 209.435 23.7956 207.578 21.4138 204.755C19.0319 201.933 17.4895 200.306 17.4895 200.306C17.4895 200.306 15.8264 204.467 18.0141 207.274C19.6354 209.256 21.4202 211.099 23.3497 212.782L23.6382 209.435Z" fill="#426868"/>
<path d="M9.03735 154.359C9.49476 156.249 10.0552 158.112 10.7162 159.941C12.6469 165.019 15.7737 167.973 17.6152 172.532C19.4566 177.091 17.6152 183.723 19.4304 189.688C21.2457 195.653 24.2256 198.607 24.2518 202.804C24.2781 207.001 22.6255 218.627 22.6255 218.627" stroke="#141F1F" stroke-linecap="round" stroke-linejoin="round"/>
<path d="M10.2913 159.107L7.14868 157.459" stroke="#141F1F" stroke-linecap="round" stroke-linejoin="round"/>
<path d="M9.74048 156.678L10.5432 154.416" stroke="#141F1F" stroke-linecap="round" stroke-linejoin="round"/>
<path d="M17.4316 172.354C17.4316 172.354 14.8085 171.011 12.1223 169.683" stroke="#141F1F" stroke-linecap="round" stroke-linejoin="round"/>
<path d="M15.6479 168.933C16.4158 166.496 17.432 164.143 18.6804 161.913" stroke="#141F1F" stroke-linecap="round" stroke-linejoin="round"/>
<path d="M18.9845 188.224C17.2366 186.013 15.1758 184.069 12.8672 182.453" stroke="#141F1F" stroke-linecap="round" stroke-linejoin="round"/>
<path d="M19.8818 190.727C20.3001 188.946 20.8652 187.204 21.5712 185.517C22.5785 183.282 22.7306 182.993 22.7306 182.993" stroke="#141F1F" stroke-linecap="round" stroke-linejoin="round"/>
<path d="M24.1208 205.999C24.1208 205.999 26.2194 203.449 27.4995 202.494C28.2811 201.918 29.0146 201.28 29.6925 200.584" stroke="#141F1F" stroke-linecap="round" stroke-linejoin="round"/>
<path d="M24.2624 202.825C23.422 201.465 22.4783 200.173 21.4398 198.958C20.4188 197.843 19.3081 196.813 18.1189 195.879" stroke="#141F1F" stroke-linecap="round" stroke-linejoin="round"/>
<path d="M23.3549 212.782C23.2468 211.364 22.7633 210.001 21.9541 208.832C20.6635 207.132 19.142 204.871 18.5229 203.979" stroke="#141F1F" stroke-linecap="round" stroke-linejoin="round"/>
<path d="M38.7056 227.53C38.7766 223.641 37.5897 219.834 35.3217 216.675H19.5826C17.3209 219.833 16.1363 223.636 16.2039 227.519C16.2039 233.993 19.2101 239.513 23.4387 241.684V242.907H31.6125V241.705H31.4656C35.6994 239.523 38.7056 233.988 38.7056 227.53Z" fill="#141F1F" stroke="#141F1F" stroke-linecap="round" stroke-linejoin="round"/>
<path d="M113.561 88.9469H95.272V95.6675H113.561V88.9469Z" fill="#545454"/>
<path d="M113.566 88.9469H96.3267V95.6675H113.566V88.9469Z" fill="#141F1F"/>
<path d="M113.566 88.9469H96.3267V90.5051H113.566V88.9469Z" fill="#545454"/>
<path d="M105.293 95.0117H98.3989L151.781 242.907H158.674L105.293 95.0117Z" fill="#545454"/>
<path d="M106.541 95.0117H99.6475L153.029 242.907H159.923L106.541 95.0117Z" fill="#141F1F"/>
<path d="M160.784 224.267H147.94V227H160.784V224.267Z" fill="white" stroke="#141F1F" stroke-miterlimit="10"/>
<path d="M150.296 195.354H137.453V198.087H150.296V195.354Z" fill="white" stroke="#141F1F" stroke-miterlimit="10"/>
<path d="M139.808 166.446H126.965V169.18H139.808V166.446Z" fill="white" stroke="#141F1F" stroke-miterlimit="10"/>
<path d="M129.321 137.534H116.478V140.267H129.321V137.534Z" fill="white" stroke="#141F1F" stroke-miterlimit="10"/>
<path d="M118.834 108.621H105.99V111.354H118.834V108.621Z" fill="white" stroke="#141F1F" stroke-miterlimit="10"/>
<path d="M119.384 120L128.361 113.673L131.477 90.4736C131.477 90.4736 122.128 110.174 120.89 112.55C119.652 114.927 119.384 120 119.384 120Z" fill="#141F1F" stroke="#141F1F" stroke-miterlimit="10"/>
<path d="M139.73 184.494C139.73 184.494 137.694 187.694 132.563 187.951C130.066 188.077 129.195 188.701 129.069 190.197C128.943 191.692 130.192 192.568 132.81 193.439C135.428 194.31 140.045 194.934 142.29 195.06C144.536 195.186 147.773 195.936 148.15 194.315C148.528 192.694 149.273 188.701 149.273 188.329C149.273 187.956 139.73 184.494 139.73 184.494Z" fill="#141F1F" stroke="#141F1F" stroke-miterlimit="10"/>
<path d="M128.272 108.563C127.616 116.684 126.866 127.324 126.866 133.499C126.866 144.475 130.858 154.327 132.353 157.942C133.849 161.557 136.43 169.122 136.551 169.62C136.671 170.119 137.925 177.102 138.423 178.849C138.922 180.596 139.168 181.844 139.168 181.844C139.168 181.844 137.799 184.468 137.799 185.585C137.799 186.703 139.336 185.097 139.336 185.097C141.417 185.851 143.542 186.475 145.7 186.965C149.063 187.715 149.897 189.877 149.897 189.877C149.897 189.877 150.123 187.453 150.375 176.855C150.627 166.257 144.326 145.324 144.326 142.103C144.326 138.882 146.692 110.803 146.692 110.803C146.692 110.803 133.602 110.929 129.61 109.062L128.272 108.563Z" fill="#5C5C5C" stroke="#141F1F" stroke-miterlimit="10"/>
<path d="M147.4 186.954C147.4 186.954 144.158 189.053 143.161 189.578C142.164 190.102 137.915 190.952 137.547 191.949C137.18 192.946 137.799 194.693 137.799 194.693C137.799 194.693 146.151 196.314 150.018 196.56C153.885 196.807 159.12 197.185 159.745 196.56C160.369 195.936 160.243 189.331 160.243 189.331C160.243 189.331 149.394 186.083 147.4 186.954Z" fill="#141F1F" stroke="#141F1F" stroke-miterlimit="10"/>
<path d="M138.728 124.024C138.728 124.024 140.349 144.102 141.351 147.591C142.353 151.08 147.919 169.998 148.171 172.364C148.413 174.392 148.495 176.436 148.418 178.476C148.297 179.221 147.673 180.097 147.547 181.965C147.421 183.833 147.421 186.954 147.421 186.954C148.913 187.201 150.325 187.8 151.539 188.701C153.533 190.197 156.786 190.569 158.396 190.322C160.007 190.076 160.264 190.197 160.264 189.326V186.083C160.264 183.712 160.018 181.593 160.264 177.228C160.511 172.863 158.937 159.311 158.166 155.324C157.394 151.337 155.049 145.97 154.923 144.349C154.797 142.727 157.547 129.758 157.547 125.519C157.547 121.28 156.802 111.307 156.802 111.307L140.716 110.929" fill="#5C5C5C"/>
<path d="M138.728 124.024C138.728 124.024 140.349 144.102 141.351 147.591C142.353 151.08 147.919 169.998 148.171 172.364C148.413 174.392 148.495 176.436 148.418 178.476C148.297 179.221 147.673 180.097 147.547 181.965C147.421 183.833 147.421 186.954 147.421 186.954C148.913 187.201 150.325 187.8 151.539 188.701C153.533 190.197 156.786 190.569 158.396 190.322C160.007 190.076 160.264 190.197 160.264 189.326V186.083C160.264 183.712 160.018 181.593 160.264 177.228C160.511 172.863 158.937 159.311 158.166 155.324C157.394 151.337 155.049 145.97 154.923 144.349C154.797 142.727 157.547 129.758 157.547 125.519C157.547 121.28 156.802 111.307 156.802 111.307L140.716 110.929" stroke="#141F1F" stroke-miterlimit="10"/>
<path d="M142.993 65.2386L139.541 65.396C139.541 65.396 132.642 76.3714 131.383 83.9C130.124 91.4285 127.936 110.898 127.936 110.898C127.936 110.898 132.017 112.309 140.328 112.472C148.638 112.634 156.639 112.157 156.639 112.157C156.639 112.157 160.71 90.8042 162.121 81.8644C163.532 72.9246 161.025 70.889 158.512 68.6908C156.923 67.341 155.046 66.3752 153.024 65.8682L142.993 65.2386Z" fill="#141F1F" stroke="#141F1F" stroke-miterlimit="10"/>
<path d="M128.235 107.131C131.825 108.362 135.579 109.05 139.373 109.172C145.485 109.329 157.095 108.857 157.095 108.857V113.091L150.8 113.406C150.8 113.406 150.8 125.797 150.642 126.264C150.485 126.731 151.424 127.209 145.312 127.209C139.2 127.209 133.392 126.112 133.077 124.853C132.763 123.594 134.127 112.965 134.127 112.965L127.878 110.898L128.235 107.131Z" fill="white" stroke="#141F1F" stroke-miterlimit="10"/>
<path d="M139.289 111.91L136.545 111.863L136.64 106.312C136.648 105.948 136.8 105.602 137.062 105.35C137.325 105.097 137.676 104.959 138.04 104.964C138.404 104.972 138.749 105.124 139.001 105.385C139.254 105.646 139.393 105.996 139.389 106.36L139.289 111.91Z" fill="white" stroke="#141F1F" stroke-miterlimit="10"/>
<path d="M137.978 111.769L137.815 120.84" stroke="#141F1F" stroke-miterlimit="10"/>
<path d="M139.65 111.68L136.067 111.617L136.046 112.813L139.629 112.876L139.65 111.68Z" fill="white" stroke="#141F1F" stroke-miterlimit="10"/>
<path d="M137.852 111.008C137.778 111.012 137.705 111 137.636 110.974C137.568 110.947 137.506 110.907 137.454 110.855C137.402 110.803 137.361 110.741 137.335 110.672C137.309 110.604 137.297 110.53 137.301 110.457V106.501C137.301 106.43 137.315 106.36 137.343 106.294C137.371 106.229 137.412 106.17 137.464 106.121C137.515 106.072 137.576 106.034 137.643 106.009C137.709 105.984 137.781 105.973 137.852 105.977C137.923 105.973 137.994 105.984 138.06 106.009C138.127 106.034 138.188 106.072 138.24 106.121C138.291 106.17 138.332 106.229 138.36 106.294C138.388 106.36 138.403 106.43 138.402 106.501V110.436C138.409 110.511 138.4 110.587 138.375 110.658C138.35 110.729 138.31 110.794 138.258 110.848C138.206 110.902 138.142 110.945 138.072 110.972C138.002 111 137.927 111.012 137.852 111.008Z" fill="white" stroke="#141F1F" stroke-miterlimit="10"/>
<path d="M145.081 113.196L142.332 113.143L142.432 107.598C142.434 107.418 142.473 107.24 142.544 107.074C142.616 106.909 142.72 106.759 142.849 106.634C142.979 106.509 143.132 106.41 143.3 106.344C143.468 106.278 143.647 106.246 143.827 106.25C144.008 106.252 144.186 106.289 144.352 106.361C144.518 106.432 144.667 106.536 144.793 106.666C144.918 106.795 145.017 106.949 145.082 107.117C145.148 107.285 145.18 107.465 145.176 107.645L145.081 113.196Z" fill="white" stroke="#141F1F" stroke-miterlimit="10"/>
<path d="M143.769 113.054L143.607 122.125" stroke="#141F1F" stroke-miterlimit="10"/>
<path d="M145.204 113.314L141.621 113.242L141.597 114.438L145.18 114.51L145.204 113.314Z" fill="white" stroke="#141F1F" stroke-width="1.0002" stroke-miterlimit="10"/>
<path d="M143.644 112.272C143.496 112.272 143.355 112.214 143.25 112.109C143.146 112.005 143.087 111.864 143.087 111.716V107.787C143.087 107.714 143.102 107.641 143.13 107.574C143.158 107.506 143.199 107.445 143.25 107.393C143.302 107.342 143.363 107.301 143.431 107.273C143.498 107.245 143.57 107.231 143.644 107.231C143.79 107.232 143.93 107.291 144.033 107.395C144.137 107.499 144.194 107.64 144.194 107.787V111.748C144.186 111.889 144.125 112.022 144.023 112.119C143.92 112.216 143.785 112.271 143.644 112.272Z" fill="white" stroke="#141F1F" stroke-miterlimit="10"/>
<path d="M134.656 113.899C136.495 114.392 138.407 114.552 140.302 114.371L139.814 126.438C139.814 126.438 135.758 127.298 133.544 124.591L134.656 113.899Z" fill="white" stroke="#141F1F" stroke-miterlimit="10"/>
<path d="M140.302 114.371C140.302 114.371 142.762 115.604 147.678 114.864L148.292 126.784C148.292 126.784 143.376 128.505 139.814 126.417L140.302 114.371Z" fill="white" stroke="#141F1F" stroke-miterlimit="10"/>
<path d="M129.672 82.1424C129.672 82.1424 119.647 82.3785 118.33 81.9011C117.013 81.4237 117.616 78.9159 118.571 73.3075C119.526 67.6992 125.491 48.2351 125.491 48.2351C125.491 48.2351 123.466 46.0894 123.345 44.8932C123.225 43.697 124.3 39.2848 124.3 39.2848C124.3 39.2848 122.149 40.2397 121.556 39.6416C120.963 39.0435 123.345 36.7771 123.345 36.7771C123.345 36.7771 125.612 36.0583 127.165 37.1338C128.718 38.2093 130.271 39.9983 130.507 42.27C130.743 44.5417 130.029 49.4313 129.431 53.0146C128.833 56.5978 127.763 69.3675 127.763 69.3675C127.763 69.3675 133.135 65.9049 134.803 65.1704C137.135 64.1683 139.71 63.8781 142.206 64.3362C142.206 64.3362 140.176 73.2918 139.105 76.4029C138.035 79.514 131.32 93.9677 128.576 100.295C125.832 106.622 119.384 119.995 119.384 119.995C119.384 119.995 118.43 114.749 121.294 107.22C124.159 99.6915 129.672 82.1424 129.672 82.1424Z" fill="#B2B2B2" stroke="#141F1F" stroke-miterlimit="10"/>
<path d="M124.368 49.9454L130.48 50.8163L129.61 54.4311L123.744 53.3084L124.368 49.9454Z" fill="white" stroke="#141F1F" stroke-miterlimit="10"/>
<path d="M123.372 52.1909L130.716 53.5602L128.618 68.0245C128.618 68.0245 133.34 65.4013 135.601 64.6563C137.862 63.9113 141.466 64.6563 141.466 64.6563C141.466 64.6563 142.379 65.6688 141.298 68.3287C140.218 70.9887 137.101 81.3502 135.601 85.1171C134.1 88.884 118.896 121.658 118.896 121.658C118.896 121.658 118.272 116.296 119.647 112.057C121.021 107.818 128.87 82.1214 128.87 82.1214C128.87 82.1214 119.269 82.7458 118.146 82.3733C117.023 82.0008 117.149 78.0083 117.27 77.0115C117.391 76.0147 123.372 52.1909 123.372 52.1909Z" fill="#426868" stroke="#141F1F" stroke-miterlimit="10"/>
<path d="M128.927 95.295L141.456 64.6562L138.896 64.3624L126.871 94.4871L125.444 94.0149C125.203 94.7651 124.772 95.9875 124.521 96.7692L125.811 97.6769L128.576 100.3C129.169 99.0672 130.208 96.9896 130.758 95.8459L128.927 95.295Z" fill="white" stroke="#141F1F" stroke-miterlimit="10"/>
<path d="M140.559 42.291C140.559 42.291 142.983 37.0813 145.648 35.7488C148.313 34.4162 153.161 36.3521 153.161 36.3521C153.161 36.3521 159.582 39.1379 161.287 43.5029C162.992 47.8679 159.955 55.8633 159.955 55.8633L140.197 43.1409L140.559 42.291Z" fill="white" stroke="#141F1F" stroke-miterlimit="10"/>
<path d="M146.98 41.6719C147.488 40.7922 147.929 39.8749 148.297 38.9281C148.556 37.9822 148.514 36.9791 148.176 36.0583C149.352 35.9509 150.536 36.1142 151.639 36.5357" stroke="#141F1F" stroke-miterlimit="10"/>
<path d="M138.985 48.4713C138.985 48.4713 134.987 44.8355 134.987 43.5029C134.987 42.1704 145.648 41.0791 148.192 41.929C150.737 42.7789 154.488 48.2247 156.062 49.7986C157.636 51.3725 162.357 54.5203 161.392 56.7028C160.427 58.8853 157.274 60.5851 153.522 58.2767C149.771 55.9683 139.252 48.9539 139.252 48.9539C140.585 47.742 141.435 48.8333 141.435 48.8333" fill="white"/>
<path d="M138.985 48.4713C138.985 48.4713 134.987 44.8355 134.987 43.5029C134.987 42.1704 145.648 41.0791 148.192 41.929C150.737 42.7789 154.488 48.2247 156.062 49.7986C157.636 51.3725 162.357 54.5203 161.392 56.7028C160.427 58.8853 157.274 60.5851 153.522 58.2767C149.771 55.9683 139.252 48.9539 139.252 48.9539C140.585 47.742 141.435 48.8333 141.435 48.8333" stroke="#141F1F" stroke-miterlimit="10"/>
<path d="M157.405 52.5896C157.405 52.5896 152.799 47.1386 149.042 45.5647C145.286 43.9908 140.921 45.0768 139.835 46.2887C138.749 47.5006 136.561 53.3188 136.44 55.1341C136.32 56.9493 136.105 62.5262 137.154 63.1348C138.203 63.7434 141.64 64.1001 141.64 64.1001C141.239 66.7042 141.037 69.335 141.036 71.9697C141.157 75.1175 143.371 75.0178 145.065 74.2886C146.76 73.5593 153.759 66.76 153.759 65.8944C153.697 64.9987 153.574 64.1082 153.391 63.2292L154.85 59.2263C154.85 59.2263 159.461 56.4667 157.405 52.5896Z" fill="#B2B2B2" stroke="#141F1F" stroke-miterlimit="10"/>
<path d="M151.681 47.1334C152.066 47.8097 152.322 48.5515 152.436 49.3212C152.436 50.2865 151.345 55.8634 151.345 55.8634C151.345 55.8634 152.678 56.5874 153.04 55.4961C153.402 54.4049 153.89 51.6191 157.405 52.5896C155.681 50.5869 153.764 48.7593 151.681 47.1334Z" fill="#141F1F" stroke="#141F1F" stroke-miterlimit="10"/>
<path d="M141.771 55.1341C141.409 55.0134 138.623 54.0428 138.502 53.3188C138.381 52.5948 141.891 49.8038 141.891 49.8038V48.5918C141.891 48.5918 140.842 47.6108 139.226 48.9538" stroke="#141F1F" stroke-miterlimit="10"/>
<path d="M140.302 54.8928C140.302 54.8928 136.304 54.0429 136.907 56.5874C137.096 57.3796 141.152 58.0459 142.484 58.1613C143.817 58.2767 147.085 58.4026 146.482 56.9494C145.879 55.4961 141.876 54.5308 140.302 54.8928Z" fill="#141F1F" stroke="#141F1F" stroke-miterlimit="10"/>
<path d="M144.924 49.0745C144.924 49.0745 147.709 47.6213 148.921 50.1658" stroke="#141F1F" stroke-miterlimit="10"/>
<path d="M147.216 51.4721C147.122 52.0702 146.776 52.5214 146.445 52.4532C146.115 52.385 145.92 51.8761 146.02 51.2832C146.12 50.6904 146.461 50.234 146.791 50.3022C147.122 50.3704 147.311 50.8898 147.216 51.4721Z" fill="#141F1F"/>
<path d="M140.302 50.5278C140.223 51.0209 139.94 51.3829 139.667 51.3357C139.394 51.2885 139.236 50.8635 139.315 50.3704C139.394 49.8772 139.677 49.5205 139.95 49.5624C140.223 49.6044 140.396 50.0399 140.302 50.5278Z" fill="#141F1F"/>
<path d="M145.023 52.3483C145.023 52.3483 145.627 53.9222 147.93 53.8015" stroke="#141F1F" stroke-miterlimit="10"/>
<path d="M141.65 64.1001L146.256 64.4673L141.288 68.3444L141.65 64.1001Z" fill="#141F1F" stroke="#141F1F" stroke-miterlimit="10"/>
<path d="M153.769 65.9207C153.769 65.9207 146.98 80.5843 145.768 84.4666C144.556 88.3489 146.12 105.641 146.12 109.035C146.12 112.43 148.218 128.505 148.218 128.505C148.218 128.505 155.611 127.655 159.976 125.719C162.358 124.699 164.631 123.441 166.759 121.962L159.818 100.311C159.818 100.311 167.226 80.9515 168.212 76.3452C169.199 71.7389 166.638 69.1944 163.491 67.9825C160.343 66.7706 153.769 65.9207 153.769 65.9207Z" fill="#426868" stroke="#141F1F" stroke-miterlimit="10"/>
<path d="M159.818 100.326L151.886 98.4429C151.886 98.4429 150.522 89.0781 153.502 79.7343C156.481 70.3906 160.065 67.206 160.065 67.206L155.689 66.4086C155.689 66.4086 151.492 75.3589 149.525 80.7259C147.557 86.0929 148.108 99.2403 148.108 99.2403L145.616 99.9486C145.768 101.606 145.873 102.645 146.015 104.072C148.559 103.385 152.704 102.682 153.68 102.818C154.556 102.944 158.344 103.621 161.025 104.104L159.818 100.326Z" fill="white" stroke="#141F1F" stroke-miterlimit="10"/>
<path d="M122.417 55.3859L120.444 49.6831H115.958L114.164 55.5013C113.753 56.2199 113.537 57.0341 113.54 57.8622C113.539 58.6005 113.71 59.3289 114.038 59.9904C114.366 60.6519 114.842 61.2285 115.43 61.6752C116.018 62.1218 116.701 62.4264 117.426 62.5649C118.152 62.7035 118.899 62.6724 119.61 62.474C120.321 62.2756 120.977 61.9154 121.526 61.4214C122.074 60.9275 122.501 60.3132 122.773 59.6267C123.045 58.9403 123.154 58.2002 123.092 57.4645C123.031 56.7288 122.799 56.0174 122.417 55.3859Z" fill="white" stroke="#141F1F" stroke-miterlimit="10"/>
<path d="M120.565 46.0474H115.958V49.6831H120.565V46.0474Z" fill="#141F1F" stroke="#141F1F" stroke-miterlimit="10"/>
<path d="M118.02 32.475H115.717V34.8988H118.02V32.475Z" fill="#141F1F" stroke="#141F1F" stroke-miterlimit="10"/>
<path d="M116.446 34.5369C115.637 36.1942 114.618 37.7406 113.414 39.1379C111.719 40.9584 112.69 42.2858 114.022 42.5323C115.355 42.7789 117.658 42.7737 117.658 43.6236V45.9267" stroke="#141F1F" stroke-miterlimit="10"/>
<path d="M117.296 35.0195C117.296 35.0195 113.54 39.9878 113.661 40.7171C113.781 41.4463 117.9 42.1703 118.75 42.5323C119.599 42.8943 119.353 45.9267 119.353 45.9267" stroke="#141F1F" stroke-miterlimit="10"/>
<path d="M116.446 32.5956V0.120605" stroke="#141F1F" stroke-miterlimit="10"/>
<path d="M117.658 0V33.2043" stroke="#141F1F" stroke-miterlimit="10"/>
<path d="M126.986 67.6152L125.171 64.2208C125.171 64.2208 123.959 58.5285 123.959 58.0458C123.959 57.5632 122.385 54.2894 121.777 53.1982C121.168 52.1069 120.565 52.2276 120.565 53.4395C120.565 54.6514 121.656 56.708 121.656 57.0752C121.583 57.5311 121.462 57.9778 121.294 58.4078C121.294 58.4078 116.205 54.7721 115.597 54.1635C114.988 53.5549 113.902 54.4101 113.902 55.1341C113.928 55.756 114.05 56.3702 114.264 56.9546C114.385 57.3166 113.661 59.8611 113.661 60.711C113.768 61.7948 114.143 62.835 114.752 63.7381C115.355 64.7087 119.715 66.162 119.715 66.162L123.597 71.6129L126.986 67.6152Z" fill="#B2B2B2" stroke="#141F1F" stroke-miterlimit="10"/>
<path d="M129.777 68.4651L126.383 65.6793L121.22 70.7001C121.22 70.7001 124.893 74.5404 125.244 74.5404C125.596 74.5404 129.777 68.4651 129.777 68.4651Z" fill="white" stroke="#141F1F" stroke-miterlimit="10"/>
<path d="M158.496 70.8889L147.71 79.2516L129.048 67.4945L123.23 75.128C123.23 75.128 134.379 83.9734 138.135 87.6091C141.891 91.2448 147.83 94.6392 150.726 93.0653C153.622 91.4914 165.269 82.6408 165.631 82.2788" fill="#426868"/>
<path d="M158.496 70.8889L147.71 79.2516L129.048 67.4945L123.23 75.128C123.23 75.128 134.379 83.9734 138.135 87.6091C141.891 91.2448 147.83 94.6392 150.726 93.0653C153.622 91.4914 165.269 82.6408 165.631 82.2788" stroke="#141F1F" stroke-miterlimit="10"/>
<path d="M150.495 77.0692C150.495 77.0692 157.405 76.9485 158.617 87.6092L163.585 83.9734C163.585 83.9734 162.494 75.4953 154.614 74.1575L150.495 77.0692Z" fill="white" stroke="#141F1F" stroke-miterlimit="10"/>
<path d="M131.713 30.1719H102.633L112.401 18.5406H121.944L131.713 30.1719Z" fill="white" stroke="#141F1F" stroke-miterlimit="10"/>
<path d="M121.656 13.693H112.401V18.5406H121.656V13.693Z" fill="white" stroke="#141F1F" stroke-miterlimit="10"/>
<path d="M107.627 27.4542L106.415 29.0176" stroke="#141F1F" stroke-miterlimit="10"/>
<path d="M108.776 25.9643L114.332 18.7925V15.162" stroke="#141F1F" stroke-miterlimit="10"/>
<path d="M127.243 35.3395C127.243 35.3395 126.058 34.3427 125.187 34.3217C124.316 34.3007 121.693 35.1034 122.118 35.7382C122.543 36.373 127.243 35.3395 127.243 35.3395Z" fill="#B2B2B2" stroke="#141F1F" stroke-miterlimit="10"/>
<path d="M129.006 36.5147C128.525 35.9831 127.919 35.5793 127.243 35.3395C126.194 35.0195 123.293 35.9796 123.377 36.5042C123.461 37.0288 125.69 37.1075 126.22 37.0288C126.75 36.9501 129.006 36.5147 129.006 36.5147Z" fill="#B2B2B2" stroke="#141F1F" stroke-miterlimit="10"/>
<path d="M131.441 40.7119C131.441 40.7119 130.685 36.6722 130.087 36.137C129.489 35.6019 126.173 36.4308 125.701 36.7981C125.229 37.1653 125.995 37.9942 126.341 38.0887C127.16 38.1461 127.981 38.1619 128.802 38.1359L129.179 40.8378L131.441 40.7119Z" fill="#B2B2B2" stroke="#141F1F" stroke-miterlimit="10"/>
<path d="M122.411 38.6028L124.137 36.4623L128.46 39.9459C128.743 40.175 128.924 40.507 128.962 40.8689C129 41.2308 128.894 41.5932 128.665 41.8765C128.436 42.1593 128.104 42.3396 127.742 42.378C127.38 42.4163 127.018 42.3096 126.734 42.0811L122.411 38.6028Z" fill="white" stroke="#141F1F" stroke-miterlimit="10"/>
<path d="M123.33 37.6532L116.263 31.9609" stroke="#141F1F" stroke-miterlimit="10"/>
<path d="M122.37 39.0273L124.618 36.2371L123.687 35.4866L121.439 38.2768L122.37 39.0273Z" fill="white" stroke="#141F1F" stroke-miterlimit="10"/>
<path d="M127.763 46.5667C127.285 44.7725 129.074 42.0286 129.074 42.0286C128.348 41.6729 127.667 41.2326 127.044 40.717C126.451 40.1189 126.451 38.6867 127.285 38.928C128.12 39.1693 131.341 40.5019 131.341 40.5019C131.706 40.7144 131.996 41.0364 132.168 41.4225C132.34 41.8085 132.387 42.239 132.301 42.6529C132.06 44.2268 130.029 48.7387 130.029 48.7387" fill="#B2B2B2"/>
<path d="M127.763 46.5667C127.285 44.7725 129.074 42.0286 129.074 42.0286C128.348 41.6729 127.667 41.2326 127.044 40.717C126.451 40.1189 126.451 38.6867 127.285 38.928C128.12 39.1693 131.341 40.5019 131.341 40.5019C131.706 40.7144 131.996 41.0364 132.168 41.4225C132.34 41.8085 132.387 42.239 132.301 42.6529C132.06 44.2268 130.029 48.7387 130.029 48.7387" stroke="#141F1F" stroke-miterlimit="10"/>
<path d="M142.369 178.56H85.0049V181.304H142.369V178.56Z" fill="#545454"/>
<path d="M107.333 117.283L61.989 242.907H66.3907L109.768 122.728L107.879 117.283H107.333Z" fill="#545454"/>
<path d="M106.085 117.283L60.7405 242.907H62.6502L107.932 117.445L107.879 117.283H106.085Z" fill="#141F1F"/>
<path d="M116.52 95.0117H109.626L163.008 242.907H169.902L116.52 95.0117Z" fill="#545454"/>
<path d="M117.763 95.0117H110.869L164.251 242.907H171.145L117.763 95.0117Z" fill="#141F1F"/>
<path d="M118.807 117.283L73.4629 242.907H77.8593L121.242 122.728L119.348 117.283H118.807Z" fill="#545454"/>
<path d="M117.559 117.283L72.2144 242.907H74.1188L119.405 117.445L119.348 117.283H117.559Z" fill="#141F1F"/>
<path d="M121.897 88.9469H103.608V95.6675H121.897V88.9469Z" fill="#545454"/>
<path d="M121.903 88.9469H104.663V95.6675H121.903V88.9469Z" fill="#454545"/>
</svg>
